<?xml version="1.0" encoding="UTF-8"?>
<svg width="58px" height="61px" viewBox="0 0 58 61" version="1.1" xmlns="http://www.w3.org/2000/svg" xmlns:xlink="http://www.w3.org/1999/xlink">
    <!-- Generator: Sketch 39.1 (31720) - http://www.bohemiancoding.com/sketch -->
    <title>Group</title>
    <desc>Created with Sketch.</desc>
    <defs></defs>
    <g id="Page-1" stroke="none" stroke-width="1" fill="none" fill-rule="evenodd">
        <g id="US-Patient" transform="translate(-10552.000000, -1600.000000)">
            <g id="Group-739" transform="translate(0.000000, 415.000000)">
                <g id="Group" transform="translate(10555.000000, 1188.000000)">
                    <path d="M19.2,49.51 C19.701,49.51 18.6,49.53 19,49.5 C19.701,49.47 20.2,48.92 20.3,48.23 C20.3,47.51 19.8,46.89 19.1,46.85 C18.1,46.8 18.7,46.8 17.7,46.85 C17,46.88 16.5,47.49 16.5,48.22 C16.6,48.92 17.1,49.47 17.801,49.51 C18.3,49.52 18.8,49.51 19.2,49.51 L19.2,49.51 Z M19.2,45.21 C19.701,45.21 18.6,45.2 19,45.21 C20.6,45.26 21.9,46.53 21.9,48.15 C21.9,49.77 20.7,51.08 19.1,51.13 C18.1,51.16 18.7,51.16 17.7,51.13 C16.2,51.09 14.9,49.79 14.9,48.21 C14.9,46.58 16.1,45.28 17.7,45.22 C18.201,45.19 18.7,45.21 19.2,45.21 L19.2,45.21 Z" id="Fill-160" fill="#FFFFFF"></path>
                    <path d="M15.5,12.64 L15.5,12.64 L15.5,11.33 C15.4,11.18 15.201,10.96 15,10.94 C14.6,10.88 14.2,10.95 13.701,10.91 C13.301,10.87 13.1,11.02 13.1,11.53 L13.1,13.61 C13.1,14.34 12.8,14.63 12,14.65 C11.7,14.66 11.4,14.65 11.1,14.65 C9.3,14.65 9.3,14.65 9.3,16.48 C9.3,16.94 9.5,17.05 9.9,17.03 C10.6,17.01 11.3,17.02 12,17.03 C12.8,17.04 13.1,17.34 13.1,18.1 L13.1,20.3 C13.1,20.65 13.2,20.8 13.6,20.79 C14,20.77 14.5,20.77 15,20.79 C15.4,20.81 15.5,20.64 15.5,20.3 L15.5,18.94 C15.5,17.05 15.5,17.02 17.4,17.03 C19.301,17.04 19.301,17.04 19.2,15.16 C19.2,14.77 19.1,14.64 18.7,14.65 C18,14.66 17.3,14.66 16.6,14.65 C15.7,14.63 15.5,14.4 15.5,13.58 L15.5,12.64 L15.5,12.64 Z M17.2,18.74 L17.2,20.55 C17.1,21.64 16.4,22.42 15.3,22.45 C14.6,22.47 14,22.47 13.301,22.45 C12.201,22.43 11.4,21.68 11.4,20.51 L11.4,18.74 L9.8,18.74 C8.4,18.73 7.701,17.99 7.701,16.62 L7.701,14.84 C7.701,13.78 8.5,12.99 9.6,12.97 C10.1,12.95 10.701,12.96 11.4,12.96 L11.4,11.32 C11.4,10.02 12.201,9.25 13.4,9.23 C14,9.22 14.6,9.22 15.201,9.23 C16.4,9.26 17.1,10.02 17.2,11.25 L17.2,12.96 L18.9,12.96 C20.1,12.98 20.801,13.7 20.9,14.89 L20.9,16.84 C20.801,18 20,18.71 18.9,18.74 C18.3,18.75 17.801,18.74 17.2,18.74 L17.2,18.74 Z" id="Fill-161" fill="#FFFFFF"></path>
                    <path d="M37.8,11.02 C37.9,11.15 37.9,11.33 37.8,11.48 L37.6,11.7 L37.5,11.9 C36.9,12.69 36.9,13.75 37.6,14.46 C38.801,15.62 39.9,16.78 41.1,17.9 C41.7,18.56 42.8,18.64 43.5,18.07 C43.6,18 43.701,17.92 43.8,17.85 L44,17.73 C44.2,17.58 44.4,17.58 44.5,17.72 C45.201,18.21 45.8,18.69 46.4,19.18 C46.5,19.27 46.6,19.38 46.6,19.49 C46.6,19.61 46.6,19.72 46.5,19.83 C46.301,19.95 46.2,20.08 46.1,20.2 C45.8,20.43 45.6,20.66 45.4,20.91 C45.201,21.13 44.9,21.22 44.6,21.21 C44.1,21.2 43.6,21.05 42.9,20.72 C42,20.27 41.1,19.63 40,18.71 C38.5,17.37 37.2,16.02 36.1,14.59 C35.3,13.67 34.9,12.9 34.5,12.12 C34.301,11.56 34.2,11.14 34.301,10.73 C34.301,10.52 34.4,10.37 34.5,10.25 L34.6,10.17 C34.9,9.79 35.3,9.4 35.7,9.02 C35.801,8.94 35.9,8.9 36,8.9 C36.1,8.9 36.201,8.93 36.3,9.04 C36.8,9.73 37.4,10.43 37.8,11.02 L37.8,11.02 Z M48.1,19.39 C48.1,18.85 47.801,18.34 47.3,18 L45.5,16.53 C44.801,15.99 43.8,15.98 43.1,16.51 L42.9,16.69 L42.7,16.85 C42.5,16.98 42.3,16.97 42.1,16.83 L41.9,16.62 L41,15.71 C40.2,14.95 39.5,14.18 38.7,13.42 C38.5,13.22 38.5,13.03 38.7,12.79 L38.801,12.6 L38.9,12.48 C39.5,11.7 39.5,10.78 38.9,10 C38.4,9.36 38,8.74 37.5,8.15 C37.1,7.7 36.6,7.43 36.1,7.4 C35.6,7.36 35,7.57 34.6,7.98 C34.5,8.11 34.301,8.25 34.2,8.38 C34,8.61 33.8,8.84 33.5,9.07 C33,9.56 32.7,10.19 32.801,10.94 C32.801,11.44 32.9,11.96 33.1,12.57 C33.5,13.45 34,14.32 34.701,15.31 C35.9,16.87 37.301,18.35 39,19.83 C40.301,20.9 41.3,21.61 42.4,22.12 C43,22.4 43.701,22.71 44.6,22.71 L44.801,22.71 C45.5,22.67 46,22.45 46.4,22.05 C46.6,21.85 46.8,21.65 47,21.45 C47.2,21.26 47.3,21.06 47.5,20.87 C47.9,20.46 48.1,19.94 48.1,19.39 L48.1,19.39 Z" id="Fill-162" fill="#E15874"></path>
                    <path d="M32.7,29.71 L31,29.71 L31,41.89 L5.801,41.89 L5.801,35.39 L6.6,35.39 L18.7,35.39 C19.301,35.39 19.6,35.13 19.701,34.62 C19.701,34.1 19.301,33.8 18.7,33.77 C18.5,33.76 18.3,33.77 18.201,33.77 L6.5,33.77 L5.801,33.77 L5.801,31.44 L6.5,31.44 L20.801,31.44 C21.7,31.44 22.701,31.45 23.6,31.44 C24.201,31.43 24.6,31.09 24.6,30.6 C24.6,30.14 24.201,29.83 23.7,29.81 L23.4,29.81 L6.5,29.81 L5.801,29.81 L5.801,7.46 L28.701,7.46 C28.9,7.08 29.3,6.44 30,5.71 C29.9,5.75 29.7,5.77 29.6,5.77 C22.8,5.78 17.7,5.78 10.9,5.78 C9,5.77 7.2,5.77 5.3,5.78 C4.301,5.78 4.1,6.01 4.1,6.94 L4.1,42.47 C4.1,43.31 4.4,43.56 5.2,43.56 L31.6,43.56 C32.4,43.56 32.7,43.31 32.7,42.46 L32.7,30.54 L32.7,29.72 L32.7,29.71" id="Fill-163" fill="#FFFFFF"></path>
                    <path d="M34.701,29.75 C34.8,29.75 35,30.1 35,30.29 L35,38.3 L35,48.8 C35,51.2 33.6,52.63 31.2,52.63 L5.6,52.63 C3.7,52.63 2.3,51.64 1.9,49.97 C1.8,49.63 1.8,49.27 1.8,48.91 L1.8,5.97 C1.8,3.66 3.201,2.22 5.5,2.22 C14.7,2.21 22.2,2.22 31.301,2.22 C32.1,2.22 32.9,2.39 33.5,2.89 L33.4,3 C34,2.66 34.701,2.36 35.4,2.11 C35.2,2.09 35.1,2.05 35,1.99 C33.9,1.03 32.7,0.59 31.2,0.59 C22.301,0.61 14.9,0.6 6,0.6 C5.4,0.6 4.9,0.59 4.4,0.69 C1.8,1.19 0.201,3.23 0.201,5.98 L0.201,49.1 C0.201,52.04 2.4,54.24 5.4,54.24 C14.6,54.25 22.2,54.25 31.4,54.25 C34.4,54.24 36.6,52.04 36.6,49.08 L36.6,41.79 L36.6,30.34 C36.6,29.87 36.7,29.7 37.2,29.71 C37.2,29.71 34.1,29.7 34.701,29.75" id="Fill-164" fill="#FFFFFF"></path>
                    <path d="M27.7,11.17 C27.201,11.03 26.801,11.3 26.7,11.98 C25.5,17.02 26.6,21.49 30.201,25.32 C30.3,25.44 30.4,25.57 30.5,25.74 C29.801,26.11 29.1,26.45 28.5,26.8 C27.5,27.28 27.201,27.84 27.4,28.59 C27.5,29.35 28.1,29.7 29.1,29.7 C29.801,29.71 30.4,29.7 31,29.7 L31,29.71 L37.2,29.71 L37.2,29.7 C37.301,29.71 37.4,29.7 37.5,29.71 L38,29.71 L39.5,29.71 C41.2,29.74 42.8,29.64 44.4,29.17 C45,28.99 45.201,28.63 45.1,28.11 C45,27.62 44.6,27.46 43.9,27.6 C43.1,27.76 42.3,28 41.5,28.02 C37.701,28.08 33.9,28.08 30.1,28.1 C30,28.1 29.9,28.07 29.7,28.03 C30.6,27.54 31.4,27.14 32.1,26.73 C32.9,26.3 33,25.74 32.4,25.15 C28.5,21.7 27.1,17.44 28.301,12.38 C28.4,11.71 28.2,11.3 27.7,11.17" id="Fill-165" fill="#E15874"></path>
                    <path d="M49.8,4.88 C45.7,1.29 41,0.45 35.801,2.07 C35.6,2.11 35.5,2.12 35.4,2.11 C34.701,2.36 34,2.66 33.4,3 C32.3,3.9 31.301,4.79 30.201,5.65 L30,5.71 C29.3,6.44 28.9,7.08 28.701,7.46 C28.4,7.96 28.1,8.38 27.9,8.82 C27.7,9.21 27.8,9.62 28.2,9.79 C28.4,9.91 28.8,9.84 29.1,9.75 C29.3,9.7 29.4,9.42 29.5,9.24 C32.2,4.69 37.1,2.31 42.3,3.08 C49.6,4.14 54.5,11.4 52.6,18.53 C51.8,21.87 49.9,24.43 47,26.27 C46.701,26.42 46.4,26.63 46.4,26.87 C46.301,27.14 46.4,27.54 46.6,27.75 C46.9,28.09 47.3,27.94 47.7,27.72 C55.9,22.75 57.1,11.24 49.8,4.88" id="Fill-166" fill="#E15874"></path>
                </g>
            </g>
        </g>
    </g>
</svg>