<?xml version="1.0" encoding="UTF-8"?>
<svg width="56px" height="61px" viewBox="0 0 56 61" version="1.1" xmlns="http://www.w3.org/2000/svg" xmlns:xlink="http://www.w3.org/1999/xlink">
    <!-- Generator: Sketch 39.1 (31720) - http://www.bohemiancoding.com/sketch -->
    <title>Group 3</title>
    <desc>Created with Sketch.</desc>
    <defs></defs>
    <g id="Page-1" stroke="none" stroke-width="1" fill="none" fill-rule="evenodd">
        <g id="US-Patient" transform="translate(-10948.000000, -1600.000000)" fill="#FFFFFF">
            <g id="Group-739" transform="translate(0.000000, 415.000000)">
                <g id="Group-3" transform="translate(10948.000000, 1185.000000)">
                    <path d="M8.6,17.3 C8.1,17.6 7.9,17.97 7.9,18.46 C8,18.91 8.3,19.24 8.801,19.38 C8.7,18.69 8.7,18.04 8.6,17.3 L8.6,17.3 Z M27.7,17.25 C27.6,18.01 27.6,18.68 27.5,19.41 C28.1,19.3 28.4,19 28.5,18.53 C28.6,17.96 28.301,17.54 27.7,17.25 L27.7,17.25 Z M52.301,58.41 C52.801,58.85 53.3,58.94 53.801,58.63 C54.201,58.35 54.4,57.95 54.201,57.36 C53.6,57.71 53,58.04 52.301,58.41 L52.301,58.41 Z M46.4,47.59 C47.1,47.23 47.7,46.89 48.301,46.54 C47.9,46.04 47.5,45.94 47,46.16 C46.4,46.39 46.301,46.82 46.4,47.59 L46.4,47.59 Z M10.2,14.04 C11.7,14.16 14.7,13.74 15.4,13.33 L10.2,13.33 L10.2,14.04 L10.2,14.04 Z M24,34.18 C23.2,34.18 22.6,34.78 22.6,35.49 C22.6,36.22 23.3,36.84 24,36.82 C24.7,36.8 25.301,36.2 25.301,35.47 C25.301,34.74 24.7,34.17 24,34.18 L24,34.18 Z M15.4,26.86 C16.4,28.96 17.3,30.94 18.201,33.06 C19.2,30.91 20.1,28.92 21,26.81 C19.1,27.34 17.3,27.33 15.4,26.86 L15.4,26.86 Z M53.5,55.98 C52,53.25 50.6,50.58 49.1,47.86 C48.4,48.24 47.801,48.59 47.1,48.95 C48.6,51.7 50.1,54.38 51.6,57.08 C52.301,56.69 52.9,56.36 53.5,55.98 L53.5,55.98 Z M10.2,11.69 C10.4,11.71 10.5,11.75 10.6,11.75 C15.6,11.75 20.6,11.75 25.701,11.76 C26.1,11.76 26.2,11.55 26.2,11.18 C26.2,9.34 26.2,7.51 26.1,5.67 C26.1,5.32 26,4.85 25.701,4.66 C25,4.12 24.201,3.57 23.3,3.26 C20.7,2.3 17.9,2.26 15.201,2.72 C13.5,3.01 11.9,3.6 10.6,4.78 C10.4,4.94 10.2,5.18 10.2,5.39 L10.2,11.69 L10.2,11.69 Z M26.2,14.78 C25.8,14.76 25.6,14.75 25.4,14.73 C24.1,14.62 22.8,14.36 21.7,13.65 C20.9,13.14 20.1,13.16 19.301,13.59 C18.7,13.9 18.1,14.16 17.4,14.39 C15.3,15.17 13,15.54 10.701,15.6 C10.4,15.61 10.2,15.58 10.2,16.02 C10.2,16.94 10.2,17.88 10.301,18.79 C10.701,22.47 13.9,25.47 17.5,25.67 C21.5,25.9 25,23.5 25.8,19.71 C26.2,18.14 26.1,16.47 26.2,14.78 L26.2,14.78 Z M40.1,24.04 C34.9,24 30.5,28.33 30.5,33.47 C30.4,38.9 34.6,43.29 39.9,43.33 C45.301,43.37 49.701,39.14 49.701,33.79 C49.801,28.41 45.5,24.07 40.1,24.04 L40.1,24.04 Z M28.9,45.57 L28.9,40.7 C28.9,40.04 29.2,39.7 29.6,39.68 C30.1,39.65 30.4,40.04 30.4,40.7 C30.5,42.1 30.4,43.5 30.4,44.91 L30.4,45.6 L34.1,45.6 C34.701,45.6 35.4,45.6 36,45.61 C36.7,45.61 37,45.88 37,46.38 C37,46.88 36.7,47.13 36,47.13 L21.7,47.13 L5.5,47.13 L5.1,47.13 C4.4,47.11 4.1,46.85 4.2,46.36 C4.2,45.88 4.5,45.62 5.1,45.61 C5.4,45.6 5.801,45.6 6.1,45.6 L6.1,30.97 C6,31.04 5.9,31.08 5.9,31.14 C3.8,33.06 2.6,35.35 2.6,38.23 L2.6,45.1 C2.6,45.34 2.801,45.57 2.9,45.82 C3,46.1 3.1,46.43 3,46.67 C3,46.88 2.6,47.06 2.3,47.1 C1.9,47.17 1.5,47.11 1,47.13 C0.6,47.14 0.201,47.02 0.1,46.5 C0,45.97 0.3,45.7 0.8,45.6 C0.9,45.59 1,45.58 1.1,45.55 L1.1,44.98 L1.1,38.64 C1,35.04 2.4,32.18 5.1,29.84 C7.2,27.93 9.7,26.75 12.5,26.02 C12.7,25.97 12.8,25.92 13.1,25.85 C13,25.72 12.9,25.61 12.7,25.53 C11.3,24.48 10.2,23.11 9.4,21.45 C9.3,21.27 9.1,21.07 9,21.03 C7.5,20.74 6.5,19.85 6.4,18.61 C6.3,17.28 7,16.24 8.5,15.71 C8.5,15.69 8.6,15.67 8.7,15.62 L8.7,12.92 C8.7,10.39 8.7,7.86 8.6,5.33 C8.6,4.79 8.801,4.38 9.201,4.02 C10.5,2.68 12.1,1.87 13.9,1.45 C17.3,0.65 20.7,0.71 24,1.86 C25.1,2.25 26.1,2.86 27,3.74 C27.5,4.24 27.7,4.8 27.7,5.54 C27.7,8.72 27.7,11.9 27.6,15.08 C27.6,15.47 27.7,15.66 28.1,15.79 C29.5,16.23 30.201,17.38 30,18.74 C29.801,19.9 28.8,20.85 27.5,21.02 C27.3,21.05 27,21.19 26.9,21.36 C26.2,23.15 25,24.59 23.4,25.68 C23.3,25.71 23.3,25.76 23.2,25.87 C25.6,26.48 27.9,27.41 29.9,28.87 C32.7,24.05 36.8,21.74 42.301,22.78 C46.701,23.62 49.701,26.42 50.801,30.8 C52.2,35.89 50.4,39.97 46.2,43.13 C46.4,43.52 46.6,43.95 46.801,44.34 C46.9,44.45 47.1,44.52 47.3,44.52 C48.4,44.53 49.301,45.05 49.801,46.06 C51.7,49.46 53.6,52.84 55.4,56.23 C56.2,57.69 55.801,59.28 54.5,60.02 C53.1,60.75 51.6,60.26 50.801,58.82 C48.9,55.4 47,51.98 45.1,48.55 C44.6,47.58 44.6,46.6 45.201,45.7 C45.5,45.3 45.5,45.03 45.301,44.67 C45.1,44.42 45,44.15 44.801,43.9 C44,44.16 43.1,44.46 42.201,44.64 C34.801,46.17 28,39.76 29,32.3 C29.1,31.83 29.2,31.36 29.3,30.91 C29.4,30.53 29.4,30.29 29,30.08 C28.4,29.73 27.8,29.34 27.201,28.95 C26.4,29.85 26,30.91 25.701,32.01 C25.5,32.62 25.5,33.09 26.1,33.62 C27,34.49 27.1,36.03 26.3,37.1 C25.6,38.17 24.201,38.61 23,38.18 C21.8,37.76 21,36.51 21.1,35.27 C21.3,33.96 22.2,32.86 23.5,32.7 C24,32.64 24.1,32.47 24.1,32.1 C24.3,31.43 24.5,30.76 24.8,30.12 C25,29.51 25.4,28.93 25.701,28.23 C24.7,27.93 23.7,27.62 22.701,27.37 C22.6,27.34 22.4,27.58 22.301,27.75 C21.201,30.08 20.2,32.42 19.1,34.77 C19.1,34.86 19.1,34.97 19,35.03 C18.7,35.26 18.5,35.64 18.201,35.65 C18,35.67 17.6,35.31 17.5,35.04 C16.4,32.67 15.3,30.3 14.3,27.91 C14,27.36 13.8,27.19 13.2,27.4 C12.6,27.64 11.9,27.78 11.2,27.96 C11.6,29.22 12,30.4 12.201,31.6 C12.4,32.33 12.6,32.74 13.5,32.86 C14.801,33.02 15.6,34 16,35.25 C16.4,36.63 16.701,38.05 17,39.45 C17,39.62 17,39.9 16.9,40.01 C16.5,40.4 16.1,40.82 15.6,41.1 C15,41.4 14.4,41.07 14.1,40.53 C13.8,39.83 14,39.12 14.6,38.85 C14.801,38.77 15,38.73 15.3,38.64 C15,37.57 14.801,36.49 14.4,35.45 C14.1,34.47 13.2,34.09 12.201,34.31 C11.2,34.52 10.5,35.28 10.6,36.32 C10.8,37.35 11,38.36 11.2,39.38 C12.4,39.11 12.9,39.37 13.1,40.24 C13.301,41.1 12.7,41.78 11.801,41.66 C11.6,41.64 11.5,41.56 11.3,41.58 C10.301,41.64 10.2,41.57 10,40.65 C9.7,39.52 9.4,38.39 9.201,37.25 C8.9,35.62 9.201,34.23 10.701,33.26 C10.8,33.18 11,32.97 10.9,32.86 C10.6,31.45 10.2,30.04 9.8,28.52 C9.1,28.94 8.5,29.24 7.9,29.59 C7.8,29.66 7.701,29.88 7.701,30.03 L7.701,45.32 C7.701,45.39 7.701,45.47 7.8,45.57 L28.9,45.57 L28.9,45.57 Z" id="Fill-143"></path>
                    <path d="M39.6,42.65 C36.9,42.55 34.301,41.2 32.6,38.46 C32.1,37.78 32.2,37.36 32.6,37.07 C33.1,36.78 33.4,36.96 33.9,37.65 C35.6,40.29 38.1,41.43 41.2,41.04 C44.1,40.68 46.5,38.46 47.2,35.58 C48.201,31.75 46,27.92 42.201,26.78 C38.4,25.65 34.5,27.68 33.201,31.4 C33.1,31.57 33.1,31.75 33,31.91 C32.9,32.32 32.6,32.57 32.1,32.45 C31.6,32.32 31.5,31.95 31.6,31.48 C31.6,31.33 31.6,31.18 31.701,31.03 C33,27.15 36.7,24.65 40.9,24.97 C44.9,25.3 48.301,28.45 48.8,32.49 C49.6,37.87 45.5,42.69 39.6,42.65" id="Fill-144"></path>
                    <path d="M18.7,9.54 L18.7,8.96 C18.7,8.76 18.6,8.56 18.7,8.36 C18.7,7.7 18.9,7.45 19.6,7.44 C20,7.43 20.4,7.43 20.7,7.43 L20.7,6.65 C20.4,6.65 20,6.66 19.701,6.65 C18.9,6.64 18.7,6.37 18.7,5.64 C18.6,5.28 18.7,4.91 18.7,4.55 L17.9,4.55 L17.9,5.7 C17.9,6.36 17.6,6.63 16.9,6.65 C16.5,6.66 16.2,6.65 15.8,6.65 L15.8,7.43 C16.2,7.43 16.6,7.42 17,7.44 C17.6,7.46 17.9,7.74 17.9,8.35 L17.9,9.54 L18.7,9.54 L18.7,9.54 Z M18.201,11.18 C17.801,11.08 17.3,11.04 17,10.85 C16.4,10.6 16.301,10.08 16.4,9.53 C16.4,9.11 16.301,8.94 15.8,8.94 C14.6,8.94 14.2,8.47 14.2,7.31 L14.2,6.48 C14.2,5.67 14.7,5.14 15.6,5.15 C16.1,5.16 16.4,5.04 16.4,4.38 C16.301,3.53 16.9,3.04 17.7,2.99 L18.3,2.99 C19.701,2.98 20,3.25 20.2,4.72 C20.2,4.87 20.5,5.1 20.6,5.11 C22,5.25 22.301,5.57 22.301,7.01 C22.301,7.4 22.301,7.82 22.2,8.17 C21.9,8.8 21.4,8.99 20.7,8.96 C20.4,8.94 20.2,8.94 20.2,9.36 C20.1,10.84 19.8,11.09 18.201,11.18 L18.201,11.18 Z" id="Fill-145"></path>
                </g>
            </g>
        </g>
    </g>
</svg>