<?xml version="1.0" encoding="UTF-8"?>
<svg width="30px" height="30px" viewBox="0 0 30 30" version="1.1" xmlns="http://www.w3.org/2000/svg" xmlns:xlink="http://www.w3.org/1999/xlink">
    <!-- Generator: Sketch 39.1 (31720) - http://www.bohemiancoding.com/sketch -->
    <title>Group 5</title>
    <desc>Created with Sketch.</desc>
    <defs></defs>
    <g id="Page-1" stroke="none" stroke-width="1" fill="none" fill-rule="evenodd">
        <g id="US-Patient" transform="translate(-2534.000000, -5341.000000)" fill="#E5767A">
            <g id="Group-950" transform="translate(2405.000000, 332.000000)">
                <g id="Group-5" transform="translate(129.000000, 5009.000000)">
                    <path d="M19.84,12.42 C19.29,12.42 18.84,11.97 18.84,11.42 C18.84,10.87 19.29,10.42 19.84,10.42 C20.39,10.42 20.84,10.87 20.84,11.42 C20.84,11.97 20.39,12.42 19.84,12.42" id="Fill-897"></path>
                    <path d="M9.56,12.42 C9.01,12.42 8.56,11.97 8.56,11.42 C8.56,10.87 9.01,10.42 9.56,10.42 C10.11,10.42 10.56,10.87 10.56,11.42 C10.56,11.97 10.11,12.42 9.56,12.42" id="Fill-898"></path>
                    <path d="M20.87,20.42 C20.73,20.42 20.6,20.37 20.5,20.26 C19.06,18.75 17.03,17.81 14.77,17.81 C12.51,17.81 10.48,18.75 9.03,20.26 C8.93,20.37 8.8,20.42 8.67,20.42 C8.55,20.42 8.42,20.37 8.32,20.28 C8.13,20.09 8.12,19.77 8.31,19.57 C9.94,17.87 12.23,16.81 14.77,16.81 C17.31,16.81 19.6,17.87 21.23,19.57 C21.42,19.77 21.41,20.09 21.21,20.28 C21.11,20.37 20.99,20.42 20.87,20.42" id="Fill-903"></path>
                    <path d="M0.3,29.03 L29.22,29.03 L29.22,0.11 L0.3,0.11 L0.3,29.03 Z M1.3,28.03 L28.23,28.03 L28.23,1.11 L1.3,1.11 L1.3,28.03 Z" id="Fill-911"></path>
                </g>
            </g>
        </g>
    </g>
</svg>