<?xml version="1.0" encoding="UTF-8"?>
<svg width="29px" height="30px" viewBox="0 0 29 30" version="1.1" xmlns="http://www.w3.org/2000/svg" xmlns:xlink="http://www.w3.org/1999/xlink">
    <!-- Generator: Sketch 39.1 (31720) - http://www.bohemiancoding.com/sketch -->
    <title>Group 6</title>
    <desc>Created with Sketch.</desc>
    <defs></defs>
    <g id="Page-1" stroke="none" stroke-width="1" fill="none" fill-rule="evenodd">
        <g id="US-Patient" transform="translate(-2577.000000, -5341.000000)" fill="#E15873">
            <g id="Group-950" transform="translate(2405.000000, 332.000000)">
                <g id="Group-6" transform="translate(172.000000, 5009.000000)">
                    <path d="M19.61,15.85 C19.06,15.85 18.61,15.4 18.61,14.85 C18.61,14.29 19.06,13.85 19.61,13.85 C20.16,13.85 20.61,14.29 20.61,14.85 C20.61,15.4 20.16,15.85 19.61,15.85" id="Fill-904"></path>
                    <path d="M9.33,15.85 C8.78,15.85 8.33,15.4 8.33,14.85 C8.33,14.29 8.78,13.85 9.33,13.85 C9.88,13.85 10.33,14.29 10.33,14.85 C10.33,15.4 9.88,15.85 9.33,15.85" id="Fill-905"></path>
                    <path d="M18.04,22.68 C17.9,22.68 17.76,22.62 17.66,22.51 C16.86,21.59 15.76,21.03 14.54,21.03 C13.32,21.03 12.22,21.59 11.42,22.51 C11.32,22.62 11.18,22.68 11.04,22.68 C10.92,22.68 10.81,22.64 10.71,22.56 C10.51,22.37 10.48,22.06 10.67,21.85 C11.63,20.74 13.01,20.03 14.54,20.03 C16.07,20.03 17.45,20.74 18.41,21.85 C18.59,22.06 18.57,22.37 18.36,22.56 C18.27,22.64 18.15,22.68 18.04,22.68" id="Fill-906"></path>
                    <path d="M14.47,16.03 C14.4,16.03 14.32,16.01 14.25,15.98 C14.25,15.98 9.54,13.67 8,12.88 C7.77,12.76 7.62,12.68 7.53,12.63 L7.42,12.55 L7.32,12.42 C7.29,12.38 7.25,12.31 7.25,12.17 C7.25,11.9 7.48,11.67 7.75,11.67 C7.87,11.67 7.97,11.71 8.06,11.78 L8.07,11.79 L8.27,11.89 C8.45,11.99 8.71,12.12 9.03,12.28 C9.65,12.59 10.49,13.01 11.33,13.43 C12.65,14.08 13.96,14.72 14.47,14.97 L20.96,11.73 C21.03,11.69 21.11,11.67 21.19,11.67 C21.37,11.67 21.55,11.77 21.63,11.95 C21.76,12.19 21.66,12.49 21.41,12.62 L14.69,15.98 C14.62,16.01 14.55,16.03 14.47,16.03" id="Fill-907"></path>
                    <path d="M0.07,29.03 L28.99,29.03 L28.99,0.11 L0.07,0.11 L0.07,29.03 Z M1.07,28.03 L27.99,28.03 L27.99,1.11 L1.07,1.11 L1.07,28.03 Z" id="Fill-912"></path>
                </g>
            </g>
        </g>
    </g>
</svg>