<?xml version="1.0" encoding="UTF-8"?>
<svg width="30px" height="30px" viewBox="0 0 30 30" version="1.1" xmlns="http://www.w3.org/2000/svg" xmlns:xlink="http://www.w3.org/1999/xlink">
    <!-- Generator: Sketch 39.1 (31720) - http://www.bohemiancoding.com/sketch -->
    <title>Group 3</title>
    <desc>Created with Sketch.</desc>
    <defs></defs>
    <g id="Page-1" stroke="none" stroke-width="1" fill="none" fill-rule="evenodd">
        <g id="US-Patient" transform="translate(-2448.000000, -5341.000000)" fill="#54AF98">
            <g id="Group-950" transform="translate(2405.000000, 332.000000)">
                <g id="Group-3" transform="translate(43.000000, 5009.000000)">
                    <path d="M20.3,9.81 C19.75,9.81 19.3,9.37 19.3,8.81 C19.3,8.26 19.75,7.82 20.3,7.82 C20.86,7.82 21.3,8.26 21.3,8.81 C21.3,9.37 20.86,9.81 20.3,9.81" id="Fill-894"></path>
                    <path d="M10.02,9.81 C9.47,9.81 9.02,9.37 9.02,8.81 C9.02,8.26 9.47,7.82 10.02,7.82 C10.57,7.82 11.02,8.26 11.02,8.81 C11.02,9.37 10.57,9.81 10.02,9.81" id="Fill-895"></path>
                    <path d="M15.23,24.32 C10.79,24.32 7.11,21.09 6.4,16.85 C6.36,16.57 6.54,16.32 6.82,16.27 C6.84,16.27 6.87,16.26 6.9,16.26 C7.14,16.26 7.35,16.44 7.39,16.68 C8.01,20.45 11.29,23.33 15.23,23.32 L15.24,23.32 C19.18,23.32 22.45,20.45 23.07,16.68 C23.11,16.44 23.32,16.26 23.57,16.26 C23.59,16.26 23.62,16.27 23.65,16.27 C23.92,16.32 24.1,16.57 24.06,16.85 C23.35,21.09 19.67,24.32 15.23,24.32" id="Fill-896"></path>
                    <path d="M0.77,29.03 L29.7,29.03 L29.7,0.11 L0.77,0.11 L0.77,29.03 Z M1.77,28.03 L28.7,28.03 L28.7,1.11 L1.77,1.11 L1.77,28.03 Z" id="Fill-909"></path>
                </g>
            </g>
        </g>
    </g>
</svg>