<?xml version="1.0" encoding="UTF-8"?>
<svg width="30px" height="30px" viewBox="0 0 30 30" version="1.1" xmlns="http://www.w3.org/2000/svg" xmlns:xlink="http://www.w3.org/1999/xlink">
    <!-- Generator: Sketch 39.1 (31720) - http://www.bohemiancoding.com/sketch -->
    <title>Group 4</title>
    <desc>Created with Sketch.</desc>
    <defs></defs>
    <g id="Page-1" stroke="none" stroke-width="1" fill="none" fill-rule="evenodd">
        <g id="US-Patient" transform="translate(-2491.000000, -5341.000000)" fill="#EDC49B">
            <g id="Group-950" transform="translate(2405.000000, 332.000000)">
                <g id="Group-4" transform="translate(86.000000, 5009.000000)">
                    <path d="M20.07,11.46 C19.52,11.46 19.07,11.01 19.07,10.46 C19.07,9.91 19.52,9.46 20.07,9.46 C20.62,9.46 21.07,9.91 21.07,10.46 C21.07,11.01 20.62,11.46 20.07,11.46" id="Fill-899"></path>
                    <path d="M9.79,11.46 C9.24,11.46 8.79,11.01 8.79,10.46 C8.79,9.91 9.24,9.46 9.79,9.46 C10.34,9.46 10.79,9.91 10.79,10.46 C10.79,11.01 10.34,11.46 9.79,11.46" id="Fill-900"></path>
                    <path d="M18.49,19.87 L11.37,19.87 C11.09,19.87 10.87,19.64 10.87,19.37 C10.87,19.09 11.09,18.87 11.37,18.87 L18.49,18.87 C18.77,18.87 19,19.09 19,19.37 C19,19.64 18.77,19.87 18.49,19.87" id="Fill-902"></path>
                    <path d="M0.54,29.03 L29.46,29.03 L29.46,0.11 L0.54,0.11 L0.54,29.03 Z M1.54,28.03 L28.46,28.03 L28.46,1.11 L1.54,1.11 L1.54,28.03 Z" id="Fill-910"></path>
                </g>
            </g>
        </g>
    </g>
</svg>