<?xml version="1.0" encoding="UTF-8"?>
<svg width="29px" height="30px" viewBox="0 0 29 30" version="1.1" xmlns="http://www.w3.org/2000/svg" xmlns:xlink="http://www.w3.org/1999/xlink">
    <!-- Generator: Sketch 39.1 (31720) - http://www.bohemiancoding.com/sketch -->
    <title>Group 2</title>
    <desc>Created with Sketch.</desc>
    <defs></defs>
    <g id="Page-1" stroke="none" stroke-width="1" fill="none" fill-rule="evenodd">
        <g id="US-Patient" transform="translate(-2406.000000, -5756.000000)" fill="#166C66">
            <g id="Group-950" transform="translate(2405.000000, 747.000000)">
                <g id="Group-2" transform="translate(1.000000, 5009.000000)">
                    <path d="M19.53,7.81 C18.98,7.81 18.53,8.26 18.53,8.81 C18.53,9.37 18.98,9.81 19.53,9.81 C20.09,9.81 20.53,9.37 20.53,8.81 C20.53,8.26 20.09,7.81 19.53,7.81" id="Fill-892"></path>
                    <path d="M9.25,7.81 C8.7,7.81 8.25,8.26 8.25,8.81 C8.25,9.37 8.7,9.81 9.25,9.81 C9.81,9.81 10.25,9.37 10.25,8.81 C10.25,8.26 9.81,7.81 9.25,7.81" id="Fill-893"></path>
                    <path d="M24.49,15.67 L4.44,15.67 C4.99,20.72 9.27,24.65 14.46,24.65 C19.66,24.65 23.93,20.72 24.49,15.67 L24.49,15.67 Z M23.3,16.67 C22.35,20.72 18.73,23.65 14.46,23.65 C10.2,23.65 6.58,20.72 5.62,16.67 L23.3,16.67 L23.3,16.67 Z" id="Fill-901"></path>
                    <path d="M0.01,29.03 L28.93,29.03 L28.93,0.11 L0.01,0.11 L0.01,29.03 Z M1.01,28.03 L27.93,28.03 L27.93,1.11 L1.01,1.11 L1.01,28.03 Z" id="Fill-908"></path>
                </g>
            </g>
        </g>
    </g>
</svg>