<?xml version="1.0" encoding="UTF-8"?>
<svg width="43px" height="61px" viewBox="0 0 43 61" version="1.1" xmlns="http://www.w3.org/2000/svg" xmlns:xlink="http://www.w3.org/1999/xlink">
    <!-- Generator: Sketch 39.1 (31720) - http://www.bohemiancoding.com/sketch -->
    <title>Group 2</title>
    <desc>Created with Sketch.</desc>
    <defs></defs>
    <g id="Page-1" stroke="none" stroke-width="1" fill="none" fill-rule="evenodd">
        <g id="US-Patient" transform="translate(-10757.000000, -1600.000000)" fill="#FFFFFF">
            <g id="Group-739" transform="translate(0.000000, 415.000000)">
                <g id="Group-2" transform="translate(10757.000000, 1185.000000)">
                    <path d="M21.301,13.19 C24,13.19 26.7,13.18 29.5,13.2 C30,13.21 30.2,13.05 30.2,12.53 C30.1,11.1 30.1,9.68 30.2,8.26 C30.2,7.73 29.9,7.57 29.4,7.59 C28.7,7.62 27.9,7.6 27.2,7.6 C26.1,7.6 25.9,7.46 25.9,6.3 C25.9,3.83 23.8,1.78 21.4,1.78 C18.8,1.77 16.7,3.83 16.7,6.46 C16.7,7.35 16.5,7.59 15.6,7.6 C14.8,7.6 14,7.62 13.1,7.59 C12.701,7.57 12.5,7.75 12.5,8.24 L12.5,12.51 C12.5,13.07 12.701,13.21 13.2,13.2 C15.9,13.18 18.6,13.19 21.301,13.19 L21.301,13.19 Z M4.7,10.06 C4.4,10.1 4.2,10.11 4.1,10.16 C2.7,10.49 2,11.52 2,13.1 L2,56.1 C2,57.88 3.1,58.99 5,58.99 L37.801,58.99 C39.701,58.99 40.801,57.9 40.801,55.97 L40.801,13.09 C40.801,12.85 40.801,12.62 40.7,12.38 C40.6,11.07 39.301,9.98 38.1,10.16 L38.1,10.92 L38.1,54.81 C38.1,55.78 37.9,56.03 37,56.03 L5.8,56.03 C4.9,56.03 4.7,55.8 4.7,54.87 L4.7,10.86 L4.7,10.06 L4.7,10.06 Z M6.4,10.1 L6.4,54.36 L36.4,54.36 L36.4,10.13 L31.801,10.13 L31.801,12.66 C31.801,14.07 31,14.83 29.6,14.83 L13,14.83 C12.8,14.83 12.6,14.83 12.4,14.78 C11.5,14.58 10.9,13.82 10.9,12.8 C10.801,11.9 10.9,11 10.9,10.1 L6.4,10.1 L6.4,10.1 Z M10.801,8.44 C10.801,8.2 10.801,8.03 10.9,7.85 C10.9,6.75 11.7,6 12.8,5.97 C13.6,5.95 14.3,5.96 15.1,5.96 C15.301,4.06 16.1,2.51 17.6,1.37 C18.701,0.53 20,0.12 21.4,0.15 C23,0.18 24.4,0.75 25.6,1.85 C26.6,2.75 26.8,3.29 27.6,5.96 L29.5,5.96 C31,5.97 31.7,6.62 31.801,8.08 L31.801,8.44 L32.4,8.44 L38,8.44 C40.5,8.46 42.4,10.33 42.4,12.88 L42.4,41.28 C42.4,46.19 42.301,51.09 42.4,55.99 C42.5,58.7 40.3,60.66 37.801,60.65 C26.8,60.6 15.9,60.6 5,60.64 C2.4,60.65 0.301,58.68 0.301,56.02 C0.4,41.7 0.4,27.39 0.301,13.08 C0.301,10.32 2.5,8.31 5,8.43 C6.701,8.51 8.4,8.44 10.2,8.44 L10.801,8.44 L10.801,8.44 Z" id="Fill-154"></path>
                    <path d="M26.9,21.31 C25.9,20.96 25,21.04 24.2,21.65 C23.6,22.17 23,22.8 22.5,23.49 C21.8,24.49 21.301,24.49 20.6,23.46 C20.1,22.8 19.6,22.18 18.9,21.67 C18.5,21.36 18,21.17 17.4,21.14 C14.9,21 13,23.71 14.1,26.05 C14.3,26.7 14.7,27.31 15.2,27.88 C16.5,29.72 18.2,31.26 19.9,32.75 C20.4,33.19 21,33.62 21.5,34.05 C23.4,32.8 27,29.3 28.3,27.36 C28.7,26.85 29,26.3 29.201,25.74 C29.6,24.63 29.201,22.99 28.3,22.27 C28.1,22.42 28,22.56 27.9,22.71 C26,24.9 24.2,27.1 22.3,29.29 C21.8,29.9 21.301,29.94 20.9,29.37 C19.9,28.18 18.9,26.99 18,25.77 C17.8,25.55 17.7,25.12 17.8,24.86 C18,24.26 18.8,24.21 19.2,24.75 C20,25.69 20.8,26.65 21.6,27.66 C23.4,25.54 25.1,23.46 26.9,21.31 L26.9,21.31 Z M29.5,20.83 C29.9,21.61 30.301,22.29 30.6,23.03 C31.2,24.34 31.2,25.7 30.4,26.91 C29.6,28.2 28.801,29.53 27.8,30.59 C26,32.37 24,33.96 22.2,35.63 C21.8,35.97 21.4,36.02 20.9,35.69 C18.301,33.64 15.8,31.47 13.801,28.74 C13.3,28.12 12.9,27.45 12.6,26.75 C11.1,23.27 13.7,19.34 17.5,19.49 C18.701,19.53 19.7,20.07 20.6,20.84 C20.9,21.16 21.2,21.5 21.6,21.81 C22,21.38 22.4,20.91 22.9,20.53 C24.301,19.43 25.9,19.17 27.6,19.81 C27.9,19.94 28.1,19.92 28.4,19.61 C28.7,19.16 29.1,18.75 29.4,18.34 C29.8,17.88 30.301,17.82 30.701,18.15 C31,18.48 31.1,18.92 30.701,19.37 C30.301,19.89 29.8,20.4 29.5,20.83 L29.5,20.83 Z" id="Fill-155"></path>
                    <path d="M21.301,45.94 L31.3,45.94 L31.6,45.94 C32.201,45.97 32.5,46.24 32.6,46.73 C32.6,47.25 32.201,47.57 31.6,47.57 C29.9,47.58 28.2,47.58 26.5,47.58 L11.3,47.58 C11.201,47.58 11.1,47.58 10.9,47.57 C10.5,47.54 10.2,47.27 10.1,46.79 C10.1,46.35 10.5,45.97 10.9,45.95 C11.7,45.93 12.4,45.94 13.1,45.94 L21.301,45.94" id="Fill-156"></path>
                    <path d="M18,42.71 C15.701,42.71 13.4,42.72 11.1,42.71 C10.5,42.71 10.1,42.39 10.1,41.93 C10.1,41.44 10.5,41.1 11.1,41.08 L11.5,41.08 L21.5,41.08 C22.6,41.08 23.7,41.07 24.8,41.08 C25.4,41.09 25.801,41.37 25.801,41.87 C25.801,42.4 25.5,42.71 24.8,42.71 C22.5,42.72 20.3,42.71 18,42.71" id="Fill-157"></path>
                    <path d="M30.5,42.71 C30,42.71 29.6,42.72 29.201,42.71 C28.6,42.7 28.3,42.41 28.3,41.92 C28.3,41.48 28.6,41.1 29.1,41.09 C30,41.07 30.9,41.06 31.801,41.09 C32.201,41.1 32.5,41.38 32.6,41.88 C32.6,42.36 32.3,42.68 31.801,42.71 C31.3,42.73 30.9,42.71 30.5,42.71" id="Fill-158"></path>
                    <path d="M21.301,8.67 C22.4,8.65 23.3,7.72 23.3,6.68 C23.3,5.61 22.3,4.73 21.301,4.75 C20.201,4.77 19.4,5.67 19.4,6.7 C19.4,7.77 20.3,8.68 21.301,8.67 L21.301,8.67 Z M21.301,3.11 C23.201,3.1 24.9,4.73 24.9,6.68 C24.9,8.64 23.3,10.27 21.301,10.3 C19.4,10.33 17.7,8.69 17.7,6.73 C17.7,4.78 19.3,3.12 21.301,3.11 L21.301,3.11 Z" id="Fill-159"></path>
                </g>
            </g>
        </g>
    </g>
</svg>