<?xml version="1.0" encoding="UTF-8"?>
<svg width="59px" height="61px" viewBox="0 0 59 61" version="1.1" xmlns="http://www.w3.org/2000/svg" xmlns:xlink="http://www.w3.org/1999/xlink">
    <!-- Generator: Sketch 39.1 (31720) - http://www.bohemiancoding.com/sketch -->
    <title>Group 4</title>
    <desc>Created with Sketch.</desc>
    <defs></defs>
    <g id="Page-1" stroke="none" stroke-width="1" fill="none" fill-rule="evenodd">
        <g id="US-Patient" transform="translate(-11149.000000, -1600.000000)" fill="#FFFFFF">
            <g id="Group-739" transform="translate(0.000000, 415.000000)">
                <g id="Group-4" transform="translate(11149.000000, 1192.000000)">
                    <path d="M9.4,11.86 C10.9,14.25 10.5,14.61 10.5,16.47 L10.5,31.33 L10.5,32.43 L16.1,32.43 L16.1,11.86 L9.4,11.86 L9.4,11.86 Z M16.2,34.17 L10,34.17 C9.1,34.17 8.9,33.91 8.9,33.05 L8.9,26.36 L8.9,15.33 C8.9,13.49 7.701,12.06 6,11.88 C3.9,11.65 2.3,13.1 2.3,15.28 L2.3,26.78 C2.3,31.04 2.2,35.31 2.3,39.58 C2.4,43.13 5.2,45.82 8.9,46.13 C12.1,46.4 15.5,43.95 16,40.62 C16.301,38.53 16.2,36.37 16.2,34.17 L16.2,34.17 Z M14.5,45.96 L14.6,46.13 C14.7,46.13 14.801,46.14 14.9,46.14 C17.4,46.15 19.801,46.15 22.2,46.14 C31.301,46.13 40.301,46.05 49.4,46.15 C53.4,46.19 56.7,43.1 56.7,38.95 L56.7,2.56 L56.7,1.88 L17.9,1.88 L17.9,2.5 L17.9,14.89 L17.9,39.01 C17.9,41.7 16.9,43.97 14.801,45.75 C14.7,45.83 14.6,45.89 14.5,45.96 L14.5,45.96 Z M16.2,10.14 L16.2,9.22 L16.2,1.34 C16.2,0.43 16.4,0.17 17.3,0.17 L57.201,0.17 C58.2,0.17 58.4,0.41 58.4,1.42 L58.4,39.12 C58.4,43.09 55.9,46.4 52.1,47.48 C51.4,47.68 50.7,47.8 50,47.8 C36.201,47.82 22.5,47.87 8.801,47.78 C4.5,47.76 1.2,44.4 0.7,40.49 C0.5,38.73 0.6,36.94 0.6,35.16 L0.6,15.48 C0.6,12.25 2.7,10.16 5.9,10.14 C9,10.12 12.201,10.14 15.301,10.14 L16.2,10.14 L16.2,10.14 Z" id="Fill-146"></path>
                    <path d="M51.8,14.64 L51.8,7.66 L22.701,7.66 L22.701,14.67 L23.4,14.67 L43.701,14.67 C43.9,14.67 44.1,14.65 44.3,14.7 C44.801,14.78 45,15.05 45,15.52 C45.1,15.98 44.801,16.25 44.4,16.35 C44.2,16.39 44,16.38 43.801,16.38 L22.301,16.38 C21.201,16.38 21,16.13 21,15.12 L21,7.18 C21,6.19 21.201,5.94 22.2,5.94 C32.3,5.93 42.301,5.94 52.4,5.94 C53.3,5.94 53.5,6.16 53.5,7.08 L53.5,15.2 C53.5,16.12 53.2,16.38 52.301,16.38 C51,16.38 49.801,16.39 48.6,16.37 C47.9,16.37 47.4,15.84 47.7,15.23 C47.801,14.79 48.201,14.67 48.6,14.67 L51.1,14.67 C51.301,14.67 51.5,14.65 51.8,14.64" id="Fill-147"></path>
                    <path d="M46.6,29.69 L46.6,28.74 C46.6,27.84 46.801,27.61 47.7,27.6 C48.4,27.59 49,27.58 49.6,27.61 C50.1,27.63 50.3,27.51 50.3,26.99 C50.2,26.6 50.2,26.2 50.3,25.8 C50.3,25.37 50.2,25.2 49.701,25.21 C49,25.24 48.301,25.23 47.5,25.21 C46.801,25.2 46.6,24.93 46.6,24.23 C46.6,23.48 46.5,22.73 46.6,21.98 C46.6,21.63 46.4,21.47 46.1,21.48 C45.6,21.5 45.1,21.51 44.7,21.49 C44.3,21.47 44.2,21.62 44.2,21.97 L44.2,24.1 C44.2,24.93 43.9,25.21 43.1,25.22 C42.301,25.23 41.6,25.21 40.9,25.24 C40.701,25.25 40.4,25.44 40.4,25.55 C40.4,26.19 40.5,26.84 40.5,27.49 C41,27.52 41.5,27.56 42.1,27.6 L42.201,27.6 C44.2,27.6 44.2,27.61 44.2,29.55 C44.2,31.45 44.2,31.44 46.1,31.36 C46.4,31.35 46.6,31.23 46.6,30.88 L46.6,29.69 L46.6,29.69 Z M48.201,23.53 L50,23.53 C51.1,23.55 51.9,24.26 52,25.42 L52,27.37 C51.9,28.56 51.1,29.28 49.9,29.3 C49.4,29.31 48.8,29.3 48.201,29.3 L48.201,31.07 C48.201,32.22 47.5,32.99 46.301,33.02 C45.7,33.03 45.1,33.03 44.5,33.02 C43.2,32.99 42.5,32.23 42.5,31 L42.5,29.3 C41.9,29.3 41.4,29.31 40.9,29.3 C39.5,29.3 38.801,28.56 38.801,27.11 C38.801,26.54 38.7,25.97 38.801,25.39 C38.801,24.36 39.6,23.57 40.6,23.54 C41.2,23.52 41.801,23.54 42.5,23.54 L42.5,21.99 C42.5,20.55 43.2,19.81 44.7,19.8 C45.201,19.8 45.8,19.79 46.301,19.81 C47.5,19.85 48.201,20.62 48.201,21.78 L48.201,23.53 L48.201,23.53 Z" id="Fill-148"></path>
                    <path d="M36.9,35.15 L50.6,35.15 C50.7,35.15 50.9,35.14 51.1,35.17 C51.6,35.24 51.9,35.53 51.9,36 C51.9,36.44 51.6,36.74 51.1,36.82 C51,36.84 50.801,36.85 50.7,36.85 C41.5,36.85 32.3,36.84 23.1,36.84 L22.9,36.84 C22.2,36.81 21.9,36.51 21.9,35.97 C21.9,35.46 22.301,35.16 22.9,35.16 C24.9,35.15 26.9,35.15 28.9,35.15 L36.9,35.15" id="Fill-149"></path>
                    <path d="M28.1,32.14 L22.9,32.14 C22.4,32.14 22,31.98 21.9,31.43 C21.8,30.84 22.2,30.44 22.9,30.44 C25,30.43 27,30.43 29,30.43 C30.4,30.43 31.9,30.41 33.4,30.45 C33.7,30.46 34.1,30.6 34.301,30.82 C34.4,30.97 34.5,31.44 34.4,31.61 C34.2,31.86 33.8,32.1 33.5,32.12 C32.4,32.18 31.301,32.14 30.201,32.14 L28.1,32.14" id="Fill-150"></path>
                    <path d="M28.2,27.42 L23,27.42 C22.301,27.42 21.9,27.13 21.9,26.58 C21.9,26.02 22.301,25.75 23,25.75 C26.5,25.74 29.9,25.74 33.4,25.75 C34.1,25.75 34.5,26.06 34.5,26.58 C34.5,27.1 34.1,27.42 33.4,27.42 L28.2,27.42" id="Fill-151"></path>
                    <path d="M28.1,21.03 C29.9,21.03 31.701,21.01 33.5,21.05 C33.8,21.06 34.2,21.27 34.301,21.51 C34.5,21.69 34.4,22.11 34.301,22.31 C34.2,22.51 33.8,22.68 33.6,22.68 C30,22.7 26.4,22.7 22.801,22.69 C22.2,22.69 21.9,22.37 21.9,21.85 C21.9,21.33 22.301,21.04 22.9,21.04 C24.6,21.03 26.4,21.03 28.1,21.03" id="Fill-152"></path>
                </g>
            </g>
        </g>
    </g>
</svg>