<?xml version="1.0" encoding="UTF-8"?>
<svg width="116px" height="104px" viewBox="0 0 116 104" version="1.1" xmlns="http://www.w3.org/2000/svg" xmlns:xlink="http://www.w3.org/1999/xlink">
    <!-- Generator: Sketch 39.1 (31720) - http://www.bohemiancoding.com/sketch -->
    <title>Slice</title>
    <desc>Created with Sketch.</desc>
    <defs></defs>
    <g id="Page-1" stroke="none" stroke-width="1" fill="none" fill-rule="evenodd">
        <g id="US-Patient" transform="translate(-540.000000, -453.000000)">
            <g id="Group-739" transform="translate(0.000000, 415.000000)">
                <path d="M623.518,63.999 C623.518,70.6 623.518,77.201 623.516,83.802 C623.516,86.272 621.997,87.846 619.528,87.848 C606.298,87.859 593.069,87.858 579.839,87.849 C577.325,87.847 575.795,86.276 575.795,83.764 L575.795,44.158 C575.795,41.637 577.318,40.085 579.834,40.084 C593.037,40.078 606.239,40.079 619.441,40.083 C622.021,40.084 623.516,41.605 623.516,44.195 C623.518,50.797 623.518,57.398 623.518,63.999" id="Fill-114" fill="#176D67"></path>
                <path d="M614.113,100.879 C613.168,103.734 612.225,106.59 611.278,109.444 C610.252,112.539 609.219,115.632 608.196,118.727 C608.085,119.063 608.069,119.391 607.545,119.397 C607.042,119.403 606.9,119.159 606.75,118.769 C604.414,112.762 602.069,106.759 599.725,100.755 C599.657,100.581 599.586,100.407 599.405,100.227 C599.392,100.498 599.369,100.77 599.369,101.043 C599.368,106.873 599.368,112.704 599.368,118.534 C599.368,119.267 598.654,119.715 598.039,119.355 C597.737,119.178 597.891,118.854 597.891,118.602 C597.881,112.111 597.883,105.62 597.883,99.129 C597.883,98.084 597.902,97.039 597.874,95.994 C597.862,95.565 597.99,95.376 598.427,95.445 L598.509,95.446 C599.468,95.465 600.635,95.158 601.323,95.599 C601.964,96.01 602.111,97.211 602.448,98.075 C604.302,102.828 606.146,107.584 608.003,112.336 C608.088,112.553 608.095,112.83 608.394,113 C609.359,110.087 610.32,107.192 611.277,104.295 C612.164,101.612 613.068,98.934 613.912,96.238 C614.114,95.594 614.407,95.375 615.068,95.431 C615.833,95.495 616.608,95.474 617.376,95.435 C617.874,95.41 618.043,95.549 618.029,96.072 C617.992,97.501 618.015,98.932 618.017,100.362 C618.025,105.12 618.032,109.877 618.045,114.635 C618.048,115.627 618.164,116.61 618.375,117.578 C618.572,118.481 618.872,119.324 619.812,119.751 C620.292,119.968 620.106,120.426 620.079,120.775 C620.045,121.206 619.65,121.018 619.421,121.015 C616.611,120.979 614.833,119.143 614.404,115.921 C614.21,114.468 614.253,113.013 614.25,111.557 C614.244,108.01 614.249,104.463 614.249,100.915 L614.113,100.879" id="Fill-115" fill="#176D67"></path>
                <path d="M648.258,103.024 C648.182,101.451 648.388,99.978 648.084,98.514 C647.836,97.316 647.467,96.921 646.231,96.808 C645.661,96.755 645.766,96.437 645.736,96.089 C645.699,95.659 645.91,95.599 646.271,95.605 C647.426,95.621 648.581,95.604 649.735,95.612 C651.148,95.624 651.938,96.266 652.192,97.656 C652.3,98.247 652.362,98.855 652.363,99.456 C652.375,105.889 652.36,112.322 652.387,118.755 C652.39,119.415 652.192,119.51 651.576,119.568 C650.147,119.704 649.038,119.406 648.623,117.775 C646.091,121.301 641.176,120.001 639.585,116.911 C637.609,113.074 637.557,109.106 639.465,105.267 C641.032,102.118 644.689,101.149 647.808,102.787 C647.924,102.848 648.039,102.908 648.258,103.024" id="Fill-116" fill="#176D67"></path>
                <path d="M588.145,113.87 C588.145,115.438 588.125,117.005 588.157,118.571 C588.167,119.075 588.022,119.184 587.521,119.235 C586.618,119.325 586.002,119.025 585.568,118.252 C585.281,117.741 585.026,117.602 584.469,118.092 C582.599,119.737 579.496,120.062 577.355,118.931 C575.62,118.013 574.889,116.524 574.889,114.604 C574.888,112.761 575.851,111.564 577.423,110.791 C579.427,109.805 581.604,109.723 583.777,109.67 C584.919,109.642 584.912,109.665 584.876,108.535 C584.848,107.678 584.715,106.84 584.436,106.031 C583.88,104.435 582.891,103.734 581.219,103.724 C579.36,103.713 578.164,104.469 577.605,106.01 C577.397,106.582 576.391,106.979 575.912,106.666 C575.839,106.618 575.797,106.492 575.778,106.395 C575.482,104.87 576.266,103.378 577.734,102.892 C579.943,102.161 582.219,102.043 584.473,102.62 C586.233,103.07 587.175,104.407 587.68,106.079 C588.138,107.599 588.151,109.167 588.146,110.735 C588.143,111.78 588.145,112.825 588.145,113.87" id="Fill-117" fill="#176D67"></path>
                <path d="M630.452,111.48 C628.912,111.48 627.373,111.508 625.834,111.467 C625.23,111.45 625.089,111.644 625.154,112.216 C625.283,113.34 625.457,114.447 625.958,115.475 C627.298,118.228 630.61,119.009 633.058,117.153 C633.585,116.752 634.055,116.291 634.449,115.759 C634.664,115.469 634.816,115.282 635.218,115.574 C635.667,115.899 635.376,116.113 635.212,116.368 C633.574,118.908 631.164,119.805 628.266,119.521 C625.535,119.254 623.584,117.778 622.583,115.258 C621.362,112.193 621.384,109.071 622.852,106.073 C624.705,102.291 629.573,101.02 633.09,103.369 C635.111,104.719 635.691,106.825 635.848,109.083 C636.014,111.478 635.982,111.48 633.585,111.48 L630.452,111.48" id="Fill-118" fill="#176D67"></path>
                <path d="M567.49,111.48 C565.951,111.48 564.412,111.5 562.875,111.469 C562.369,111.459 562.198,111.606 562.227,112.115 C562.284,113.166 562.463,114.184 562.875,115.156 C564.198,118.285 567.728,119.143 570.349,116.955 C570.767,116.606 571.117,116.174 571.492,115.774 C571.681,115.572 571.764,115.207 572.182,115.514 C572.528,115.769 572.542,115.971 572.314,116.318 C571.042,118.259 569.284,119.395 566.951,119.535 C562.654,119.792 559.61,117.318 558.984,113.046 C558.575,110.257 558.842,107.583 560.439,105.142 C563.207,100.913 570.193,101.677 571.953,105.363 C572.82,107.179 573.03,109.076 572.875,111.052 C572.839,111.517 572.581,111.483 572.271,111.482 C570.677,111.478 569.083,111.48 567.49,111.48" id="Fill-119" fill="#176D67"></path>
                <path d="M551.067,108.25 C551.067,104.896 551.047,101.54 551.083,98.187 C551.091,97.52 550.892,97.346 550.26,97.387 C549.001,97.47 547.731,97.282 546.48,97.557 C544.648,97.96 543.733,99.002 543.591,100.852 C543.568,101.144 543.661,101.475 543.173,101.478 C542.651,101.482 542.794,101.113 542.793,100.844 C542.79,100.02 542.764,99.192 542.828,98.371 C542.932,97.022 543.628,96.277 544.957,96.025 C545.304,95.959 545.667,95.944 546.022,95.944 C551.164,95.939 556.306,95.948 561.449,95.929 C562.013,95.927 562.269,95.992 562.264,96.666 C562.258,97.333 562.013,97.42 561.441,97.411 C559.489,97.379 557.536,97.399 555.584,97.399 C554.313,97.399 554.313,97.399 554.313,98.629 C554.313,105.201 554.298,111.773 554.334,118.345 C554.338,119.106 554.114,119.292 553.417,119.222 C552.844,119.164 552.259,119.173 551.686,119.221 C551.151,119.265 551.053,119.049 551.056,118.562 C551.076,115.125 551.067,111.688 551.067,108.25" id="Fill-120" fill="#176D67"></path>
                <path d="M594.773,108.815 C594.773,112.032 594.755,115.248 594.79,118.465 C594.797,119.091 594.631,119.29 594.018,119.218 C593.236,119.126 592.184,119.557 591.735,119.044 C591.349,118.603 591.614,117.58 591.613,116.814 C591.609,111.425 591.618,106.037 591.603,100.648 C591.601,99.937 591.55,99.216 591.419,98.519 C591.18,97.242 590.731,96.877 589.429,96.732 C589.211,96.708 588.992,96.681 588.773,96.674 C588.47,96.664 588.426,96.479 588.432,96.231 C588.436,95.953 588.618,95.937 588.82,95.942 C590.137,95.982 591.457,95.861 592.772,96.036 C593.822,96.176 594.376,96.8 594.593,97.777 C594.724,98.367 594.779,98.968 594.777,99.577 C594.769,102.657 594.773,105.736 594.773,108.815" id="Fill-121" fill="#176D67"></path>
                <path d="M594.774,59.923 L594.774,61.294 C594.774,67.51 594.767,73.726 594.785,79.942 C594.787,80.537 594.707,80.809 594.007,80.784 C593.377,80.764 593.183,80.627 593.185,79.967 C593.208,71.853 593.209,63.739 593.183,55.625 C593.181,54.942 593.405,54.779 594.021,54.837 C594.511,54.883 595.01,54.847 595.505,54.847 C597,54.847 597,54.847 597.545,56.272 C599.701,61.907 601.858,67.542 604.016,73.177 C604.094,73.381 604.18,73.581 604.348,73.988 C604.772,72.699 605.145,71.582 605.508,70.461 C607.127,65.478 608.75,60.497 610.349,55.507 C610.509,55.011 610.718,54.801 611.264,54.833 C612.141,54.884 613.025,54.886 613.902,54.833 C614.497,54.797 614.62,55.003 614.618,55.567 C614.598,61.783 614.589,67.999 614.616,74.215 C614.625,75.887 614.668,77.57 615.082,79.208 C615.301,80.078 615.629,80.894 616.543,81.276 C617.057,81.492 616.843,81.929 616.848,82.276 C616.855,82.741 616.456,82.563 616.229,82.564 C613.852,82.58 612.055,81.307 611.284,79.06 C610.78,77.588 610.621,76.059 610.619,74.514 C610.613,69.949 610.618,65.383 610.494,60.78 C610.21,61.626 609.918,62.47 609.643,63.32 C607.812,68.953 605.984,74.587 604.163,80.223 C604.054,80.562 603.952,80.778 603.507,80.778 C603.039,80.779 602.849,80.618 602.688,80.196 C600.179,73.61 597.652,67.03 595.129,60.449 C595.061,60.271 594.99,60.094 594.92,59.917 L594.774,59.923" id="Fill-122" fill="#FFFFFF"></path>
                <path d="M619.629,51.381 C619.228,53.303 617.907,54.462 616.018,54.504 C613.737,54.555 611.454,54.516 609.173,54.516 C603.949,54.516 598.725,54.529 593.502,54.5 C592.828,54.497 592.636,54.653 592.639,55.349 C592.665,63.542 592.648,71.735 592.67,79.928 C592.672,80.584 592.559,80.858 591.835,80.801 C590.933,80.731 590.016,80.722 589.116,80.803 C588.333,80.873 588.232,80.559 588.235,79.877 C588.259,73.196 588.249,66.515 588.249,59.834 L588.249,54.885 C588.248,54.582 588.293,54.266 587.818,54.274 C585.759,54.307 583.694,54.175 581.64,54.41 C579.837,54.616 579.038,55.854 578.595,57.439 C578.542,57.633 578.628,57.967 578.319,57.947 C577.993,57.925 578.145,57.599 578.14,57.412 C578.121,56.753 578.122,56.093 578.134,55.433 C578.179,52.902 579.692,51.272 582.226,51.219 C585.166,51.158 588.108,51.219 591.048,51.25 C593.521,51.277 595.993,51.368 598.464,51.375 C605.2,51.392 611.936,51.381 618.672,51.381 L619.629,51.381" id="Fill-123" fill="#FFFFFF"></path>
                <path d="M648.246,110.422 C648.246,112.016 648.249,113.61 648.244,115.204 C648.24,116.333 647.066,117.734 645.924,117.988 C644.793,118.24 643.814,117.657 643.26,116.3 C642.409,114.214 642.419,112.007 642.493,109.808 C642.542,108.354 642.674,106.899 643.316,105.555 C644.22,103.663 646.604,103.294 648.069,104.793 C648.308,105.037 648.239,105.298 648.24,105.557 C648.25,107.178 648.246,108.8 648.246,110.422" id="Fill-124" fill="#FFFFFF"></path>
                <path d="M584.898,113.554 L584.898,114.707 C584.898,116.702 583.525,117.964 581.407,117.916 C579.503,117.874 578.193,116.467 578.272,114.538 C578.321,113.352 578.969,112.539 579.958,111.98 C581.371,111.179 582.931,111.102 584.508,111.117 C584.866,111.121 584.906,111.292 584.901,111.577 C584.891,112.236 584.898,112.895 584.898,113.554" id="Fill-125" fill="#FFFFFF"></path>
                <path d="M628.775,109.995 C627.73,109.995 626.686,109.981 625.641,110.002 C625.251,110.009 625.11,109.901 625.144,109.489 C625.267,107.996 625.528,106.545 626.371,105.269 C626.992,104.328 627.814,103.664 629.016,103.734 C630.318,103.81 631.207,104.513 631.74,105.688 C632.285,106.885 632.423,108.161 632.485,109.457 C632.507,109.911 632.32,110.011 631.908,110.002 C630.864,109.98 629.82,109.995 628.775,109.995" id="Fill-126" fill="#FFFFFF"></path>
                <path d="M565.821,109.995 C564.807,109.995 563.79,109.985 562.774,110 C562.421,110.005 562.212,109.958 562.229,109.52 C562.29,107.93 562.597,106.41 563.553,105.102 C565.024,103.089 567.547,103.289 568.698,105.508 C569.358,106.78 569.497,108.17 569.539,109.58 C569.553,110.018 569.32,109.996 569.033,109.996 C567.963,109.993 566.893,109.995 565.821,109.995" id="Fill-127" fill="#FFFFFF"></path>
                <path d="M566.881,130.266 C567.85,130.279 568.353,130.664 568.337,131.327 C568.321,132.009 567.705,132.464 566.773,132.406 C565.6,132.334 566.415,131.449 566.246,130.968 C566.057,130.428 566.36,130.142 566.881,130.266" id="Fill-128" fill="#FEFEFD"></path>
                <path d="M613.786,130.435 C614.132,131.484 614.429,132.387 614.747,133.352 L612.846,133.352 C613.144,132.428 613.438,131.518 613.786,130.435" id="Fill-129" fill="#F8FAF8"></path>
                <text id="MOBILE-MEDICAL-OFFICE" font-family="MyriadPro-Regular, Myriad Pro" font-size="9.7371" font-weight="normal" letter-spacing="0.0002" fill="#00706B">
                    <tspan x="550" y="133.447">MOBILE MEDICAL OFFICE</tspan>
                </text>
                <text id="-" font-family="MyriadPro-Regular, Myriad Pro" font-size="11.8825" font-weight="normal"></text>
                <polygon id="Fill-130" fill="#00706B" points="550.544 124.171 652.206 124.171 652.206 122.171 550.544 122.171"></polygon>
                <polygon id="Fill-131" fill="#00706B" points="550.544 138.447 652.206 138.447 652.206 136.447 550.544 136.447"></polygon>
            </g>
        </g>
    </g>
</svg>