<?xml version="1.0" encoding="UTF-8"?>
<svg width="11px" height="17px" viewBox="0 0 11 17" version="1.1" xmlns="http://www.w3.org/2000/svg" xmlns:xlink="http://www.w3.org/1999/xlink">
    <!-- Generator: Sketch 39.1 (31720) - http://www.bohemiancoding.com/sketch -->
    <title>Fill 84</title>
    <desc>Created with Sketch.</desc>
    <defs></defs>
    <g id="Page-1" stroke="none" stroke-width="1" fill="none" fill-rule="evenodd">
        <g id="US-Patient" transform="translate(-494.000000, -2655.000000)" fill="#54B099">
            <g id="Group-739" transform="translate(0.000000, 415.000000)">
                <path d="M504.472,2246.24 L504.097,2246.24 C504.104,2248.35 502.901,2250.88 501.675,2252.84 C501.064,2253.83 500.451,2254.68 499.993,2255.28 C499.763,2255.58 499.572,2255.82 499.439,2255.98 C499.305,2256.15 499.232,2256.23 499.232,2256.23 L499.516,2256.48 L499.798,2256.23 C499.798,2256.23 499.725,2256.15 499.592,2255.99 C499.126,2255.43 497.953,2253.95 496.901,2252.13 C495.848,2250.3 494.931,2248.13 494.936,2246.24 C494.936,2244.97 495.448,2243.83 496.277,2243 C497.107,2242.17 498.25,2241.66 499.516,2241.66 C500.782,2241.66 501.925,2242.17 502.755,2243 C503.585,2243.83 504.096,2244.97 504.097,2246.24 L504.847,2246.24 C504.846,2243.29 502.46,2240.91 499.516,2240.91 C496.572,2240.91 494.186,2243.29 494.186,2246.24 C494.192,2248.67 495.468,2251.27 496.72,2253.28 C497.977,2255.29 499.227,2256.72 499.234,2256.73 C499.306,2256.81 499.409,2256.85 499.518,2256.85 C499.626,2256.85 499.729,2256.8 499.8,2256.72 C499.808,2256.71 501.058,2255.26 502.313,2253.24 C503.565,2251.21 504.84,2248.62 504.847,2246.24 L504.472,2246.24" id="Fill-84"></path>
                <path d="M499.516,2244.58 L499.516,2244.96 C500.404,2244.96 501.122,2245.68 501.123,2246.57 C501.122,2247.45 500.404,2248.17 499.516,2248.17 C498.629,2248.17 497.91,2247.45 497.909,2246.57 C497.91,2245.68 498.629,2244.96 499.516,2244.96 L499.516,2244.21 C498.214,2244.21 497.159,2245.26 497.159,2246.57 C497.159,2247.87 498.214,2248.92 499.516,2248.92 C500.818,2248.92 501.873,2247.87 501.873,2246.57 C501.873,2245.26 500.818,2244.21 499.516,2244.21 L499.516,2244.58" id="Fill-85"></path>
            </g>
        </g>
    </g>
</svg>