<?xml version="1.0" encoding="UTF-8"?>
<svg width="342px" height="217px" viewBox="0 0 342 217" version="1.1" xmlns="http://www.w3.org/2000/svg" xmlns:xlink="http://www.w3.org/1999/xlink">
    <!-- Generator: Sketch 39.1 (31720) - http://www.bohemiancoding.com/sketch -->
    <title>Group</title>
    <desc>Created with Sketch.</desc>
    <defs></defs>
    <g id="Page-1" stroke="none" stroke-width="1" fill="none" fill-rule="evenodd">
        <g id="US-Patient" transform="translate(-6107.000000, -733.000000)">
            <g id="Group-739" transform="translate(0.000000, 415.000000)">
                <g id="Group" transform="translate(6107.000000, 318.000000)">
                    <path d="M328.73,215.648 L14.021,215.648 C7.041,215.648 1.38,209.985 1.38,202.998 L1.38,13.295 C1.38,6.312 7.041,0.647 14.021,0.647 L328.73,0.647 C335.71,0.647 341.37,6.312 341.37,13.295 L341.37,202.998 C341.37,209.985 335.71,215.648 328.73,215.648" id="Fill-681" fill="#54B099"></path>
                    <path d="M328.73,215.648 L328.73,215.147 L14.021,215.147 C10.67,215.147 7.63,213.79 5.431,211.59 C3.23,209.39 1.88,206.354 1.871,202.998 L1.871,13.295 C1.88,9.938 3.23,6.905 5.431,4.706 C7.63,2.506 10.67,1.148 14.021,1.148 L328.73,1.148 C332.081,1.148 335.12,2.506 337.32,4.706 C339.521,6.905 340.871,9.938 340.871,13.295 L340.871,202.998 C340.871,206.354 339.521,209.39 337.32,211.59 C335.12,213.79 332.081,215.147 328.73,215.147 L328.73,216.147 C335.99,216.147 341.87,210.261 341.87,202.998 L341.87,13.295 C341.87,6.034 335.99,0.146 328.73,0.146 L14.021,0.146 C6.76,0.146 0.87,6.034 0.87,13.295 L0.87,202.998 C0.87,210.261 6.76,216.147 14.021,216.147 L328.73,216.147 L328.73,215.648" id="Fill-682" fill="#166C66"></path>
                    <path d="M322.11,198.838 C321.94,198.838 321.78,198.736 321.71,198.578 C321.67,198.473 321.67,198.354 321.71,198.249 L321.81,198.115 L321.94,198.025 L322.121,197.994 L322.28,198.025 L322.42,198.115 L322.521,198.249 C322.56,198.354 322.56,198.473 322.521,198.578 L322.42,198.712 L322.28,198.803 L322.11,198.838 M322.11,198.106 L321.991,198.133 L321.88,198.203 C321.76,198.331 321.76,198.523 321.88,198.651 L321.991,198.721 L322.121,198.749 L322.25,198.721 L322.35,198.651 C322.46,198.523 322.46,198.331 322.35,198.203 L322.25,198.133 L322.11,198.106 M293.42,198.739 L293.4,198.739 C292.3,198.739 291.92,198.15 291.92,197.157 L291.92,195.19 L291.05,195.19 L291.05,194.339 L291.9,194.339 L291.9,193.043 L292.84,193.043 L292.84,194.339 L294.371,194.339 L294.38,195.19 L292.86,195.19 L292.86,197.139 C292.86,197.567 293.03,197.856 293.471,197.856 C293.771,197.844 294.05,197.763 294.3,197.614 L294.57,198.409 C294.221,198.625 293.831,198.739 293.42,198.739 M288.36,198.723 C287.74,198.723 287.12,198.528 286.61,198.168 L287.061,197.442 C287.45,197.735 287.92,197.892 288.41,197.892 L288.48,197.892 C289.11,197.892 289.451,197.701 289.451,197.372 C289.451,197.13 289.21,196.996 288.701,196.924 L288.25,196.862 C287.291,196.728 286.78,196.297 286.78,195.601 C286.78,194.75 287.48,194.232 288.57,194.232 C288.6,194.23 288.641,194.23 288.67,194.23 C289.25,194.23 289.811,194.386 290.31,194.68 L289.9,195.432 C289.49,195.196 289.03,195.071 288.561,195.065 C288.05,195.065 287.74,195.28 287.74,195.566 C287.74,195.851 288.06,195.933 288.47,195.985 L288.92,196.05 C289.84,196.183 290.411,196.513 290.411,197.326 C290.411,198.141 289.69,198.721 288.46,198.721 C288.431,198.722 288.4,198.723 288.36,198.723 M297.46,198.707 C297.41,198.707 297.371,198.706 297.33,198.704 L297.291,198.704 C296.07,198.704 295.08,197.723 295.061,196.501 C295.041,195.267 296.03,194.249 297.26,194.232 L297.28,194.243 C298.471,194.243 299.31,195.135 299.31,196.478 L299.31,196.836 L296.13,196.836 C296.201,197.437 296.71,197.887 297.311,197.886 C297.34,197.886 297.38,197.885 297.41,197.882 C297.86,197.873 298.3,197.716 298.65,197.433 L299.1,198.124 C298.64,198.502 298.05,198.707 297.46,198.707 M297.21,195.064 C296.63,195.064 296.141,195.517 296.11,196.102 L298.35,196.102 C298.331,195.524 297.86,195.065 297.28,195.065 L297.26,195.065 L297.241,195.065 C297.23,195.064 297.221,195.064 297.21,195.064 M305.63,198.707 C305.59,198.707 305.55,198.706 305.52,198.704 L305.31,198.707 C304.121,198.663 303.19,197.661 303.241,196.469 L303.241,196.248 C303.3,195.1 304.26,194.211 305.39,194.211 C305.431,194.211 305.471,194.212 305.52,194.214 C305.55,194.212 305.59,194.212 305.621,194.212 C306.14,194.212 306.65,194.391 307.05,194.724 L306.61,195.476 C306.291,195.231 305.891,195.097 305.491,195.091 C304.82,195.146 304.29,195.679 304.23,196.35 C304.17,197.104 304.73,197.766 305.491,197.827 C305.891,197.824 306.291,197.69 306.61,197.442 L307.05,198.194 C306.65,198.525 306.15,198.707 305.63,198.707 M318.39,198.705 C318.371,198.705 318.351,198.704 318.33,198.704 C317.09,198.704 316.09,197.704 316.09,196.469 C316.09,195.234 317.09,194.232 318.33,194.232 C318.34,194.231 318.36,194.231 318.38,194.231 C318.88,194.231 319.36,194.462 319.67,194.858 L319.67,192.623 L320.561,192.623 L320.561,198.596 L319.67,198.596 L319.67,198.077 C319.36,198.474 318.89,198.705 318.39,198.705 M318.41,195.261 C317.74,195.261 317.17,195.789 317.12,196.478 L317.12,196.58 C317.13,197.281 317.701,197.844 318.4,197.844 L318.42,197.844 C319.101,197.841 319.661,197.312 319.7,196.629 C319.75,195.918 319.201,195.307 318.49,195.263 C318.46,195.261 318.44,195.261 318.41,195.261 M309.74,198.705 C309.721,198.705 309.701,198.704 309.68,198.704 C308.44,198.704 307.44,197.704 307.44,196.469 C307.44,195.234 308.44,194.232 309.68,194.232 C309.69,194.231 309.71,194.231 309.73,194.231 C310.23,194.231 310.71,194.462 311.021,194.858 L311.021,194.339 L311.951,194.339 L311.951,198.596 L311.021,198.596 L311.021,198.077 C310.71,198.474 310.24,198.705 309.74,198.705 M309.78,195.252 C309.101,195.252 308.53,195.781 308.48,196.469 L308.48,196.571 C308.491,197.274 309.06,197.836 309.771,197.836 C309.771,197.836 309.78,197.836 309.78,197.835 C310.46,197.833 311.03,197.302 311.07,196.621 C311.11,195.907 310.56,195.298 309.851,195.254 C309.83,195.253 309.8,195.252 309.78,195.252 M283.521,198.705 C283.49,198.705 283.471,198.704 283.451,198.704 C282.221,198.704 281.21,197.704 281.21,196.469 C281.21,195.234 282.221,194.232 283.451,194.232 C283.471,194.231 283.49,194.231 283.51,194.231 C284.01,194.231 284.48,194.462 284.79,194.858 L284.79,194.339 L285.721,194.339 L285.721,198.596 L284.79,198.596 L284.79,198.077 C284.48,198.474 284.01,198.705 283.521,198.705 M282.25,196.478 L282.25,196.588 C282.26,197.287 282.83,197.845 283.53,197.844 L283.56,197.844 C284.24,197.841 284.8,197.312 284.84,196.629 C284.88,195.918 284.34,195.307 283.63,195.263 C283.601,195.261 283.58,195.261 283.55,195.261 C282.87,195.261 282.3,195.789 282.26,196.478 L282.25,196.478 M279.54,198.634 L279.54,196.253 C279.54,195.531 279.23,195.126 278.601,195.126 L278.42,195.135 C277.871,195.207 277.48,195.712 277.55,196.262 L277.55,198.634 L276.61,198.634 L276.61,196.253 C276.61,195.531 276.3,195.126 275.69,195.126 L275.5,195.135 C274.951,195.21 274.56,195.714 274.64,196.262 L274.64,198.613 L273.701,198.613 L273.701,194.339 L274.63,194.339 L274.63,194.867 C274.89,194.468 275.34,194.23 275.811,194.23 C275.84,194.23 275.86,194.23 275.88,194.232 C275.9,194.231 275.92,194.23 275.94,194.23 C276.5,194.23 277.01,194.518 277.29,194.992 C277.601,194.514 278.13,194.228 278.69,194.228 C278.73,194.228 278.76,194.229 278.8,194.232 L279,194.234 C279.88,194.296 280.541,195.056 280.48,195.933 L280.48,198.613 L279.54,198.634 M322.3,198.613 L322.201,198.613 L322.08,198.468 L322.041,198.468 L322.041,198.613 L321.95,198.613 L321.95,198.22 L322.14,198.217 L322.26,198.252 L322.3,198.345 L322.271,198.427 L322.17,198.468 L322.3,198.613 M322.041,198.293 L322.041,198.401 L322.201,198.401 L322.201,198.319 L322.14,198.319 L322.041,198.293 M314.1,198.613 L313.17,198.613 L313.17,194.339 L314.09,194.339 L314.09,194.858 C314.32,194.468 314.74,194.231 315.19,194.231 C315.2,194.231 315.21,194.231 315.221,194.232 L315.2,194.214 C315.431,194.217 315.65,194.255 315.86,194.331 L315.581,195.225 C315.4,195.155 315.21,195.117 315.021,195.117 L315,195.117 C314.4,195.117 314.1,195.511 314.1,196.218 L314.1,198.613 M301.181,198.613 L300.25,198.613 L300.25,194.339 L301.17,194.339 L301.17,194.858 C301.4,194.468 301.82,194.231 302.271,194.231 C302.28,194.231 302.291,194.231 302.3,194.232 L302.28,194.214 C302.51,194.217 302.73,194.255 302.951,194.331 L302.66,195.225 C302.48,195.155 302.291,195.117 302.1,195.117 L302.081,195.117 C301.49,195.117 301.181,195.511 301.181,196.218 L301.181,198.613 M322.121,197.994 L322.11,197.993 L322.13,197.993 L322.121,197.994" id="Fill-686" fill="#3B6057"></path>
                    <path d="M297.041,187.079 L297.041,187.079 C293.16,184.029 290.891,179.364 290.9,174.426 C290.891,169.485 293.16,164.817 297.041,161.767 C298.05,162.56 298.96,163.468 299.75,164.476 C305.25,171.466 304.03,181.587 297.041,187.079" id="Fill-687" fill="#987C51"></path>
                    <path d="M287.1,190.521 C283.58,190.521 280.07,189.373 277.15,187.079 C270.161,181.587 268.951,171.466 274.44,164.476 C277.62,160.437 282.34,158.326 287.11,158.326 C290.59,158.326 294.09,159.45 297.041,161.767 C293.16,164.817 290.891,169.485 290.9,174.426 C290.891,179.364 293.16,184.029 297.041,187.079 C294.12,189.373 290.61,190.521 287.1,190.521" id="Fill-688" fill="#8D5456"></path>
                    <path d="M306.991,190.523 C303.38,190.523 299.88,189.308 297.041,187.079 C304.03,181.587 305.25,171.466 299.75,164.476 C298.96,163.468 298.05,162.56 297.041,161.767 C299.99,159.448 303.5,158.324 306.98,158.324 C311.75,158.324 316.471,160.433 319.65,164.474 C321.88,167.308 323.09,170.813 323.09,174.42 L323.09,174.426 C323.09,183.315 315.88,190.523 306.991,190.523" id="Fill-689" fill="#969D61"></path>
                </g>
            </g>
        </g>
    </g>
</svg>