<?xml version="1.0" encoding="UTF-8"?>
<svg width="17px" height="13px" viewBox="0 0 17 13" version="1.1" xmlns="http://www.w3.org/2000/svg" xmlns:xlink="http://www.w3.org/1999/xlink">
    <!-- Generator: Sketch 39.1 (31720) - http://www.bohemiancoding.com/sketch -->
    <title>Fill 80</title>
    <desc>Created with Sketch.</desc>
    <defs></defs>
    <g id="Page-1" stroke="none" stroke-width="1" fill="none" fill-rule="evenodd">
        <g id="US-Patient" transform="translate(-249.000000, -2656.000000)">
            <g id="Group-739" transform="translate(0.000000, 415.000000)">
                <polyline id="Fill-80" fill="#54B099" points="249.403 2241.88 249.403 2242.25 264.886 2242.25 264.886 2252.73 249.778 2252.73 249.778 2241.88 249.403 2241.88 249.403 2242.25 249.403 2241.88 249.028 2241.88 249.028 2253.48 265.636 2253.48 265.636 2241.5 249.028 2241.5 249.028 2241.88 249.403 2241.88"></polyline>
                <polyline id="Fill-81" fill="#54B099" points="259.86 2248 264.992 2252.06 265.457 2251.47 260.325 2247.42"></polyline>
                <polyline id="Fill-82" fill="#54B099" points="249.672 2252.06 255.026 2247.83 254.561 2247.24 249.208 2251.47"></polyline>
                <path d="M249.193,2243.5 C249.193,2243.5 255.272,2248.8 255.767,2249.23 C256.341,2249.73 256.948,2249.85 257.333,2249.85 C257.715,2249.85 258.323,2249.73 258.897,2249.23 C259.393,2248.8 265.471,2243.5 265.471,2243.5 L264.978,2242.93 C264.975,2242.94 263.458,2244.26 261.877,2245.64 C260.295,2247.01 258.652,2248.45 258.404,2248.66 C257.988,2249.02 257.563,2249.1 257.333,2249.1 C257.1,2249.1 256.676,2249.02 256.26,2248.66 C256.012,2248.45 254.368,2247.01 252.787,2245.64 C251.205,2244.26 249.689,2242.93 249.686,2242.93 L249.193,2243.5" id="Fill-83" fill="#54B099"></path>
                <text id="+1-(857)-207-39-00info@tealmed.com" font-family="Montserrat-Regular, Montserrat" font-size="16" font-weight="normal" letter-spacing="-0.2705" fill="#7A7E7A">
                    <tspan x="34.4062" y="2248.56606">+</tspan>
                    <tspan x="43.0637" y="2248.56606" letter-spacing="0.0031">1</tspan>
                    <tspan x="48.8428" y="2248.56606" letter-spacing="-0.0001"> (8</tspan>
                    <tspan x="68.5065" y="2248.56606" letter-spacing="-0.2225">5</tspan>
                    <tspan x="77.116" y="2248.56606" letter-spacing="-0.0001">7) 2</tspan>
                    <tspan x="105.0196" y="2248.56606" letter-spacing="-0.1265">0</tspan>
                    <tspan x="115.3571" y="2248.56606" letter-spacing="-0.7985">7</tspan>
                    <tspan x="123.1826" y="2248.56606" letter-spacing="-0.3201">-</tspan>
                    <tspan x="128.6545" y="2248.56606" letter-spacing="-0.0001">3</tspan>
                    <tspan x="137.6784" y="2248.56606" letter-spacing="0.1295">9</tspan>
                    <tspan x="147.6799" y="2248.56606" letter-spacing="0.1279">-</tspan>
                    <tspan x="154.0478" y="2248.56606" letter-spacing="0.0015">0</tspan>
                    <tspan x="164.6413" y="2248.56606" letter-spacing="106.2095">0</tspan>
                    <tspan x="281.4428" y="2248.56606" letter-spacing="-0.0001">in</tspan>
                    <tspan x="296.5786" y="2248.56606" letter-spacing="-0.1425">f</tspan>
                    <tspan x="301.7161" y="2248.56606" letter-spacing="-0.0001">o@</tspan>
                    <tspan x="328.3559" y="2248.56606" letter-spacing="-0.3025">t</tspan>
                    <tspan x="334.2454" y="2248.56606" letter-spacing="-0.2369">e</tspan>
                    <tspan x="343.4325" y="2248.56606" letter-spacing="-0.0001">almed</tspan>
                    <tspan x="394.696" y="2248.56606" letter-spacing="-0.2385">.</tspan>
                    <tspan x="397.6095" y="2248.56606" letter-spacing="-0.1425">c</tspan>
                    <tspan x="406.331" y="2248.56606" letter-spacing="0.0015">o</tspan>
                    <tspan x="416.3645" y="2248.56606" letter-spacing="-0.0001">m</tspan>
                </text>
            </g>
        </g>
    </g>
</svg>