<?xml version="1.0" encoding="UTF-8"?>
<svg width="18px" height="17px" viewBox="0 0 18 17" version="1.1" xmlns="http://www.w3.org/2000/svg" xmlns:xlink="http://www.w3.org/1999/xlink">
    <!-- Generator: Sketch 39.1 (31720) - http://www.bohemiancoding.com/sketch -->
    <title>Fill 79</title>
    <desc>Created with Sketch.</desc>
    <defs></defs>
    <g id="Page-1" stroke="none" stroke-width="1" fill="none" fill-rule="evenodd">
        <g id="US-Patient" transform="translate(0.000000, -2655.000000)" fill="#54B099">
            <g id="Group-739" transform="translate(0.000000, 415.000000)">
                <path d="M10.548,2252.01 L10.734,2252.34 C10.735,2252.34 11.068,2252.15 11.446,2251.93 C11.822,2251.72 12.247,2251.48 12.41,2251.39 L12.411,2251.39 C12.581,2251.3 12.749,2251.26 12.855,2251.26 L12.969,2251.28 L12.971,2251.28 C13.279,2251.47 16.096,2253.35 16.313,2253.5 C16.319,2253.5 16.381,2253.57 16.378,2253.7 C16.378,2253.8 16.348,2253.93 16.246,2254.07 C16.103,2254.28 15.656,2254.84 15.187,2255.33 C14.952,2255.58 14.708,2255.81 14.501,2255.97 C14.398,2256.04 14.304,2256.1 14.233,2256.14 L14.149,2256.17 L14.125,2256.18 L14.125,2256.27 L14.127,2256.18 L14.125,2256.18 L14.125,2256.27 L14.127,2256.18 L14.035,2256.19 L14.115,2256.55 L14.127,2256.18 C13.827,2256.17 13.103,2256.16 11.793,2255.55 C10.491,2254.94 8.633,2253.71 6.183,2251.26 C3.734,2248.82 2.511,2246.96 1.899,2245.65 C1.289,2244.34 1.282,2243.62 1.27,2243.32 L1.244,2243.32 L1.27,2243.32 L1.244,2243.32 L1.27,2243.32 L1.276,2243.3 C1.294,2243.22 1.407,2243.03 1.579,2242.82 C2.091,2242.2 3.084,2241.4 3.375,2241.2 C3.518,2241.1 3.644,2241.07 3.743,2241.07 C3.874,2241.07 3.953,2241.13 3.953,2241.14 C4.033,2241.25 4.546,2242.02 5.051,2242.78 C5.558,2243.55 6.07,2244.33 6.166,2244.48 L6.187,2244.59 C6.188,2244.69 6.146,2244.87 6.054,2245.04 C5.968,2245.2 5.729,2245.63 5.516,2246 C5.302,2246.38 5.111,2246.71 5.11,2246.71 L5.003,2246.9 L5.112,2247.09 C5.132,2247.12 5.692,2248.07 7.536,2249.91 C9.381,2251.75 10.325,2252.32 10.358,2252.34 L10.546,2252.45 L10.734,2252.34 L10.548,2252.01 L10.738,2251.69 L10.733,2251.69 C10.655,2251.64 9.762,2251.07 8.066,2249.38 C7.163,2248.48 6.582,2247.8 6.228,2247.36 C6.051,2247.13 5.932,2246.97 5.858,2246.86 L5.779,2246.74 L5.763,2246.71 L5.76,2246.71 L5.436,2246.9 L5.762,2247.09 C5.763,2247.08 6.525,2245.75 6.717,2245.39 C6.852,2245.13 6.936,2244.86 6.937,2244.59 C6.937,2244.42 6.901,2244.24 6.799,2244.08 C6.693,2243.91 6.186,2243.14 5.677,2242.37 C5.167,2241.6 4.668,2240.85 4.561,2240.7 L4.562,2240.7 C4.374,2240.45 4.075,2240.32 3.743,2240.32 C3.485,2240.32 3.205,2240.4 2.945,2240.59 C2.692,2240.76 2.125,2241.21 1.596,2241.72 C1.333,2241.97 1.082,2242.23 0.886,2242.49 C0.696,2242.76 0.533,2242.99 0.52,2243.32 L0.521,2243.35 L0.521,2243.34 C0.529,2243.67 0.562,2244.58 1.221,2245.97 C1.879,2247.38 3.158,2249.3 5.652,2251.79 C8.147,2254.29 10.072,2255.57 11.475,2256.23 C12.87,2256.89 13.773,2256.92 14.103,2256.93 L14.15,2256.93 L14.195,2256.92 L14.12,2256.57 L14.113,2256.93 L14.195,2256.92 L14.12,2256.57 L14.113,2256.93 L14.118,2256.67 L14.108,2256.93 L14.113,2256.93 L14.118,2256.67 L14.108,2256.93 L14.125,2256.93 C14.458,2256.92 14.691,2256.75 14.955,2256.56 C15.719,2255.98 16.592,2254.88 16.861,2254.5 C17.043,2254.24 17.128,2253.96 17.128,2253.7 C17.126,2253.37 17.001,2253.07 16.743,2252.88 C16.49,2252.71 13.719,2250.86 13.362,2250.65 L13.364,2250.65 C13.202,2250.55 13.024,2250.51 12.855,2250.51 C12.586,2250.51 12.318,2250.6 12.06,2250.73 L12.061,2250.73 C11.695,2250.92 10.365,2251.68 10.361,2251.69 L10.548,2252.01 L10.738,2251.69 L10.548,2252.01" id="Fill-79"></path>
            </g>
        </g>
    </g>
</svg>