<?xml version="1.0" encoding="UTF-8"?>
<svg width="37px" height="37px" viewBox="0 0 37 37" version="1.1" xmlns="http://www.w3.org/2000/svg" xmlns:xlink="http://www.w3.org/1999/xlink">
    <!-- Generator: Sketch 39.1 (31720) - http://www.bohemiancoding.com/sketch -->
    <title>Group 4</title>
    <desc>Created with Sketch.</desc>
    <defs></defs>
    <g id="Page-1" stroke="none" stroke-width="1" fill="none" fill-rule="evenodd">
        <g id="US-patient_mobile" transform="translate(-3094.000000, -3515.000000)" fill="#54B099">
            <g id="Group-498" transform="translate(2780.000000, 3045.000000)">
                <g id="Group-4" transform="translate(314.000000, 470.000000)">
                    <path d="M18.78,36.43 L18.78,35.93 C14.09,35.93 9.84,34.03 6.76,30.95 C3.68,27.88 1.78,23.63 1.78,18.93 C1.78,14.24 3.68,9.99 6.76,6.91 C9.84,3.84 14.09,1.93 18.78,1.93 C23.48,1.93 27.73,3.84 30.8,6.91 C33.88,9.99 35.78,14.24 35.78,18.93 C35.78,23.63 33.88,27.88 30.8,30.95 C27.73,34.03 23.48,35.93 18.78,35.93 L18.78,36.93 C28.72,36.93 36.78,28.87 36.78,18.93 C36.78,8.99 28.72,0.93 18.78,0.93 C8.84,0.93 0.78,8.99 0.78,18.93 C0.78,28.87 8.84,36.93 18.78,36.93 L18.78,36.43" id="Fill-482"></path>
                    <path d="M20.83,22.71 C20.83,22.71 22.52,21.74 22.96,21.51 C23.4,21.27 23.86,21.22 24.14,21.38 C24.56,21.64 28.08,23.98 28.38,24.19 C28.67,24.4 28.82,24.99 28.41,25.58 C28,26.16 26.13,28.46 25.33,28.43 C24.54,28.41 21.23,28.33 14.99,22.1 C8.76,15.86 8.69,12.55 8.66,11.76 C8.64,10.96 10.94,9.09 11.52,8.68 C12.1,8.27 12.69,8.43 12.9,8.71 C13.14,9.04 15.45,12.55 15.71,12.95 C15.88,13.23 15.82,13.69 15.58,14.13 C15.35,14.57 14.39,16.26 14.39,16.26 C14.39,16.26 15.07,17.42 17.37,19.72 C19.67,22.02 20.83,22.71 20.83,22.71" id="Fill-494"></path>
                </g>
            </g>
        </g>
    </g>
</svg>