<?xml version="1.0" encoding="UTF-8"?>
<svg width="341px" height="217px" viewBox="0 0 341 217" version="1.1" xmlns="http://www.w3.org/2000/svg" xmlns:xlink="http://www.w3.org/1999/xlink">
    <!-- Generator: Sketch 39.1 (31720) - http://www.bohemiancoding.com/sketch -->
    <title>Group 2</title>
    <desc>Created with Sketch.</desc>
    <defs></defs>
    <g id="Page-1" stroke="none" stroke-width="1" fill="none" fill-rule="evenodd">
        <g id="US-Patient" transform="translate(-6509.000000, -733.000000)">
            <g id="Group-739" transform="translate(0.000000, 415.000000)">
                <g id="Group-2" transform="translate(6509.000000, 318.000000)">
                    <path d="M327.851,215.648 L13.15,215.648 C6.161,215.648 0.5,209.985 0.5,202.998 L0.5,13.295 C0.5,6.312 6.161,0.647 13.15,0.647 L327.851,0.647 C334.84,0.647 340.5,6.312 340.5,13.295 L340.5,202.998 C340.5,209.985 334.84,215.648 327.851,215.648" id="Fill-679" fill="#54B099"></path>
                    <path d="M327.851,215.648 L327.851,215.147 L13.15,215.147 C9.791,215.147 6.76,213.79 4.56,211.59 C2.36,209.39 1,206.354 1,202.998 L1,13.295 C1,9.938 2.36,6.905 4.56,4.706 C6.76,2.506 9.791,1.148 13.15,1.148 L327.851,1.148 C331.21,1.148 334.24,2.506 336.44,4.706 C338.64,6.905 340,9.938 340,13.295 L340,202.998 C340,206.354 338.64,209.39 336.44,211.59 C334.24,213.79 331.21,215.147 327.851,215.147 L327.851,216.147 C335.11,216.147 341,210.261 341,202.998 L341,13.295 C341,6.034 335.11,0.146 327.851,0.146 L13.15,0.146 C5.891,0.146 0,6.034 0,13.295 L0,202.998 C0,210.261 5.891,216.147 13.15,216.147 L327.851,216.147 L327.851,215.648" id="Fill-680" fill="#166C66"></path>
                    <path d="M292.391,188.574 C290.291,188.574 288.2,188.169 286.25,187.388 L287.32,182.47 C289.061,183.408 291,183.896 292.97,183.896 C293.081,183.896 293.19,183.895 293.3,183.892 C294.96,183.892 296.8,183.181 296.8,181.701 C296.8,180.754 295.97,179.982 293.78,178.915 C291.581,177.849 288.62,176.072 288.68,172.815 C288.74,168.491 292.77,165.412 298.521,165.412 L298.541,165.412 C300.39,165.412 302.23,165.752 303.96,166.417 L302.96,171.157 C301.48,170.459 299.87,170.101 298.24,170.101 C297.9,170.101 297.561,170.117 297.21,170.149 C295.49,170.388 294.73,171.215 294.73,172.046 C294.66,174.65 302.84,175.006 302.84,180.932 C302.78,185.564 298.89,188.572 292.89,188.572 C292.83,188.572 292.77,188.571 292.71,188.571 C292.601,188.573 292.49,188.574 292.391,188.574 M323.391,188.276 L318,188.276 L317.23,184.9 L309.771,184.9 L308.58,188.276 L302.48,188.276 L311.25,167.483 C311.65,166.483 312.63,165.825 313.7,165.825 L313.741,165.825 L318.71,165.825 L323.391,188.276 M314.57,171.926 L311.491,180.337 L316.35,180.337 L314.57,171.926 M282.23,188.276 L276.42,188.276 L281.221,165.825 L287.02,165.825 L282.23,188.276 M269.31,188.276 L263.15,188.276 L258.53,170.327 C258.23,169.202 258,168.847 257.17,168.372 C255.34,167.495 253.41,166.857 251.42,166.478 L251.541,165.825 L261.431,165.825 C262.77,165.831 263.9,166.813 264.101,168.136 L266.53,181.109 L272.57,165.825 L278.73,165.825 L269.31,188.276" id="Fill-685" fill="#3E647B"></path>
                </g>
            </g>
        </g>
    </g>
</svg>